<!--?xml version="1.0" standalone="no"?--><svg version="1.0" xmlns="http://www.w3.org/2000/svg" width="300.000000pt" height="299.000000pt" viewBox="0 0 300.000000 299.000000" preserveAspectRatio="xMidYMid meet">
<metadata>
  <rdf:rdf xmlns:rdf="http://www.w3.org/1999/02/22-rdf-syntax-ns#" xmlns:rdfs="http://www.w3.org/2000/01/rdf-schema#" xmlns:dc="http://purl.org/dc/elements/1.1/">
    <rdf:description dc:title="arnold schwarzenegger stencil" dc:publisher="Hiox" dc:date="2015-05-11" dc:format="image/svg+xml" dc:language="en">
      <dc:creator>
        <rdf:bag>
          <rdf:li>svgimages.com</rdf:li>
        </rdf:bag>
      </dc:creator>
    </rdf:description>
  </rdf:rdf>
</metadata>
<g transform="translate(0.000000,299.000000) scale(0.100000,-0.100000)" fill="#101010" stroke="none">
<path d="M1206 2915 c-4 -11 -22 -14 -79 -12 -59 2 -79 -2 -94 -16 -11 -9 -22
-15 -25 -12 -7 7 -113 -47 -138 -70 -10 -9 -16 -23 -14 -30 3 -7 -4 -16 -15
-20 -12 -3 -21 -11 -21 -16 0 -5 -6 -9 -14 -9 -8 0 -16 -7 -20 -15 -3 -8 -12
-15 -21 -15 -8 0 -20 -12 -26 -27 -8 -21 -6 -30 10 -47 22 -24 19 -63 -7 -82
-12 -9 -14 -29 -8 -108 5 -80 3 -101 -10 -121 -13 -21 -14 -30 -5 -53 7 -15
14 -54 16 -85 2 -32 7 -62 10 -68 4 -6 9 -25 12 -42 3 -18 12 -50 20 -72 9
-22 17 -60 20 -85 2 -25 8 -54 12 -65 24 -57 32 -124 20 -158 -10 -29 -9 -37
6 -61 10 -15 26 -31 36 -37 14 -7 19 -21 19 -51 0 -75 38 -192 76 -233 19 -21
34 -40 34 -43 0 -4 18 -25 41 -48 34 -35 41 -49 46 -95 4 -46 2 -57 -16 -73
-33 -30 -27 -54 22 -75 23 -10 72 -32 108 -50 36 -17 73 -31 82 -31 8 0 37 23
64 52 77 83 132 137 230 228 51 47 93 88 93 93 0 17 -28 5 -55 -23 -16 -16
-35 -30 -42 -30 -7 0 -13 -7 -13 -15 0 -8 -3 -15 -7 -15 -5 0 -24 -15 -43 -33
-33 -31 -103 -61 -115 -49 -16 17 -100 41 -109 32 -38 -38 -144 29 -164 104
-9 32 -54 86 -72 86 -20 0 -30 69 -24 169 l7 106 -27 14 c-14 8 -26 17 -26 21
0 4 -16 24 -35 44 -19 21 -35 43 -35 51 0 7 -4 15 -9 17 -9 3 -14 28 -12 61 1
18 42 40 76 41 15 1 20 8 20 28 1 33 13 47 24 29 10 -15 61 -7 72 11 4 7 14 6
29 -2 12 -6 31 -10 41 -7 13 3 24 -2 32 -14 17 -27 24 -24 30 14 5 40 -10 77
-33 77 -10 0 -28 9 -42 19 -34 27 -99 42 -158 37 l-51 -5 6 47 c3 26 1 72 -6
102 -6 30 -12 95 -15 144 -3 75 -1 93 14 109 22 26 90 57 125 57 15 0 27 5 27
10 0 13 36 13 62 -1 25 -14 235 -14 251 0 8 6 18 6 27 1 8 -5 17 -7 21 -5 3 3
50 8 103 11 l97 7 40 -39 c45 -44 69 -111 70 -198 0 -11 4 -27 9 -36 6 -11 5
-21 -2 -28 -7 -7 -8 -12 -4 -12 5 0 3 -6 -3 -14 -7 -9 -8 -17 -2 -20 5 -3 7
-15 4 -26 -3 -11 -1 -26 4 -33 34 -43 56 -225 41 -337 l-7 -45 11 48 c6 26 15
47 20 47 4 0 8 10 8 23 0 13 20 44 46 72 25 28 56 62 70 77 13 15 21 33 18 41
-3 8 5 33 17 57 19 35 21 47 12 71 -6 16 -8 31 -3 34 6 4 6 77 -3 176 -1 20
-8 43 -14 50 -6 8 -13 41 -15 73 -3 33 -10 62 -16 64 -7 2 -12 9 -12 16 0 8
-11 24 -24 37 -13 13 -26 34 -30 47 -4 12 -23 29 -42 37 -25 10 -34 20 -34 38
0 29 -14 43 -53 52 -16 4 -35 18 -43 31 -9 12 -21 21 -28 18 -8 -3 -16 4 -19
15 -4 16 -17 20 -73 26 -38 3 -78 11 -89 16 -11 5 -42 11 -68 14 -26 2 -52 7
-57 10 -6 3 -17 2 -27 -3 -11 -6 -27 -5 -49 4 -43 18 -80 18 -88 -1z m171
-1831 c-3 -3 -12 -4 -19 -1 -8 3 -5 6 6 6 11 1 17 -2 13 -5z" id="node1" class="node" stroke-width="20"></path>
<path d="M1390 2036 c-26 -12 -25 -22 5 -51 22 -23 23 -29 3 -26 -5 0 -8 -8
-8 -19 0 -25 35 -27 49 -3 9 16 11 16 28 2 22 -19 70 -19 82 0 6 9 11 10 15 2
8 -13 46 -15 46 -3 0 5 -10 14 -22 20 -20 9 -17 11 25 11 40 1 47 4 47 20 0
29 -28 53 -54 46 -11 -4 -29 -9 -40 -12 -12 -3 -16 -1 -12 6 8 12 1 13 -86 15
-32 1 -67 -3 -78 -8z" id="node2" class="node" stroke-width="20"></path>

<path d="M1930 1770 c0 -5 5 -10 10 -10 6 0 10 5 10 10 0 6 -4 10 -10 10 -5 0
-10 -4 -10 -10z" id="node4" class="node" stroke-width="20"></path>

<path d="M1156 1714 c-4 -9 -4 -19 -2 -21 8 -8 26 8 26 23 0 19 -16 18 -24 -2z" id="node6" class="node" stroke-width="20"></path>
<path d="M1910 1673 c0 -5 -12 -15 -26 -22 -30 -13 -26 -26 4 -17 20 7 37 34
27 44 -3 3 -5 1 -5 -5z" id="node7" class="node" stroke-width="20"></path>
<path d="M1810 1636 c0 -19 5 -47 12 -63 l11 -28 7 45 c4 27 3 52 -4 63 -17
26 -26 20 -26 -17z" id="node8" class="node" stroke-width="20"></path>
<path d="M1130 1619 c-6 -23 -9 -47 -6 -55 9 -22 56 -36 100 -28 44 7 156 62
156 76 0 13 -38 9 -70 -7 -39 -20 -85 -9 -111 26 -30 43 -56 38 -69 -12z" id="node9" class="node" stroke-width="20"></path>
<path d="M1094 1488 c-16 -25 -13 -82 6 -125 16 -35 16 -43 4 -43 -14 0 -21
-29 -6 -31 46 -5 59 -3 55 7 -2 7 8 15 26 19 34 7 64 35 38 35 -18 0 -67 39
-49 40 7 0 22 8 33 19 17 15 38 19 132 20 121 2 186 13 154 26 -10 4 -53 4
-95 1 -98 -9 -113 -9 -193 -1 -52 6 -66 11 -65 23 1 20 -29 28 -40 10z m99
-145 c-7 -2 -19 -2 -25 0 -7 3 -2 5 12 5 14 0 19 -2 13 -5z" id="node10" class="node" stroke-width="20"></path>
<path d="M1761 1463 c-6 -16 -16 -37 -23 -48 -46 -74 -64 -101 -72 -106 -5 -4
-5 -12 -1 -18 11 -19 125 158 125 193 0 17 -20 2 -29 -21z" id="node11" class="node" stroke-width="20"></path>















</g>
<g transform="translate(0.000000,299.000000) scale(0.100000,-0.100000)" fill="#FFFFFF" stroke="none">





</g>
</svg>