<!--?xml version="1.0" standalone="no"?--><svg version="1.0" xmlns="http://www.w3.org/2000/svg" width="300.000000pt" height="300.000000pt" viewBox="0 0 300.000000 300.000000" preserveAspectRatio="xMidYMid meet">
<metadata>
  <rdf:rdf xmlns:rdf="http://www.w3.org/1999/02/22-rdf-syntax-ns#" xmlns:rdfs="http://www.w3.org/2000/01/rdf-schema#" xmlns:dc="http://purl.org/dc/elements/1.1/">
    <rdf:description dc:title="kanye west stencil" dc:publisher="Hiox" dc:date="2015-05-11" dc:format="image/svg+xml" dc:language="en">
      <dc:creator>
        <rdf:bag>
          <rdf:li>svgimages.com</rdf:li>
        </rdf:bag>
      </dc:creator>
    </rdf:description>
  </rdf:rdf>
</metadata>
<g transform="translate(0.000000,300.000000) scale(0.100000,-0.100000)" fill="#161616" stroke="none">
<path d="M1370 2754 c-14 -3 -38 -11 -55 -18 -16 -8 -52 -19 -78 -25 -80 -19
-161 -61 -252 -131 -63 -49 -102 -95 -134 -160 -12 -25 -26 -52 -30 -60 -32
-61 -71 -183 -90 -286 -16 -85 -14 -268 4 -334 17 -65 12 -94 -21 -109 -45
-20 -56 -99 -30 -221 33 -155 51 -181 71 -99 6 24 14 39 17 34 14 -22 5 -154
-14 -230 -24 -93 -21 -184 10 -255 64 -149 137 -296 167 -335 23 -31 65 -117
65 -134 0 -16 109 -100 138 -107 15 -4 36 -12 47 -19 19 -11 62 -27 168 -60
31 -10 86 -15 155 -15 98 1 113 3 182 33 90 38 178 95 186 120 3 10 29 36 57
58 63 50 167 171 167 194 0 4 11 21 24 38 13 18 29 49 35 69 7 21 17 40 22 43
5 4 9 15 9 25 0 11 6 34 14 52 20 47 56 170 56 190 0 22 -27 48 -50 48 -20 0
-74 -49 -101 -90 -16 -27 -35 -85 -43 -138 -3 -18 -21 -54 -40 -80 -74 -101
-119 -152 -131 -152 -21 0 -63 57 -75 100 -11 40 -53 80 -84 80 -20 0 -20 0 0
-39 18 -37 7 -63 -16 -36 -7 8 -20 15 -29 15 -9 0 -27 7 -39 16 -23 16 -58 15
-140 -1 -22 -5 -44 -2 -69 10 -49 24 -178 16 -199 -12 -7 -10 -13 -13 -14 -8
0 26 68 84 117 99 57 18 223 22 252 7 26 -15 61 8 93 61 35 56 30 91 -16 119
-24 15 -42 19 -76 14 -127 -16 -142 -17 -153 -6 -13 13 -71 14 -95 2 -9 -6
-34 -13 -54 -16 -43 -7 -54 -31 -44 -94 5 -33 1 -45 -27 -82 -44 -59 -77 -114
-77 -129 0 -16 -39 -70 -50 -70 -15 0 -51 43 -71 85 -10 22 -31 92 -48 155
-16 63 -45 150 -65 193 -20 43 -36 83 -36 89 0 6 -6 19 -13 27 -35 40 -62 220
-34 222 38 3 75 -6 127 -32 51 -25 70 -29 145 -29 90 0 118 8 129 36 6 15 0
16 -49 11 -47 -5 -57 -3 -65 13 -13 24 -5 29 67 36 49 5 67 2 115 -21 60 -27
60 -28 73 -106 10 -64 57 -79 68 -22 3 15 10 48 16 73 11 50 14 134 5 166 -5
19 -32 41 -133 106 -56 37 -97 48 -204 56 -127 10 -195 6 -217 -13 -8 -7 -32
-16 -53 -20 -20 -4 -41 -14 -46 -23 -17 -30 -30 -2 -24 56 6 70 24 119 63 173
26 37 30 51 30 107 0 36 -5 91 -12 122 -14 68 0 155 32 201 26 35 63 38 124
11 23 -10 58 -26 78 -35 124 -54 639 -55 812 -1 28 9 72 23 98 31 61 19 102
14 106 -12 2 -11 10 -27 16 -35 27 -32 38 -128 31 -268 l-7 -137 31 -45 c53
-78 38 -194 -29 -215 -14 -5 -36 5 -71 31 -44 32 -60 38 -132 45 -107 11 -240
1 -294 -23 -24 -10 -43 -23 -43 -28 0 -6 -7 -10 -15 -10 -23 0 -65 -46 -65
-71 0 -12 19 -41 45 -67 42 -42 47 -44 85 -38 146 23 235 14 235 -24 0 -11
-17 -16 -70 -20 -53 -4 -70 -9 -70 -20 0 -10 15 -17 45 -21 25 -4 50 -8 55
-10 26 -8 88 19 173 74 50 34 92 64 92 69 0 13 36 9 48 -4 6 -7 15 -35 20 -63
26 -136 57 -224 72 -209 5 5 14 41 20 79 32 202 31 286 -3 323 -14 15 -15 28
-5 87 13 89 5 491 -12 560 -28 111 -38 129 -133 225 -99 101 -168 160 -184
160 -6 0 -16 7 -23 15 -7 8 -20 15 -29 15 -9 0 -22 5 -29 12 -6 6 -56 27 -109
45 -89 31 -111 35 -233 38 -74 2 -146 1 -160 -1z m243 -2113 c16 -6 59 -14 97
-17 66 -7 69 -8 75 -36 13 -57 -41 -76 -112 -38 -32 17 -49 18 -147 13 -90 -4
-118 -2 -150 11 -48 20 -79 20 -117 0 -41 -21 -69 -10 -69 25 0 16 6 33 13 39
26 22 355 24 410 3z" id="node1" class="node"></path>
</g>
<g transform="translate(0.000000,300.000000) scale(0.100000,-0.100000)" fill="#FFFFFF" stroke="none">


</g>
</svg>