<!--?xml version="1.0" standalone="no"?--><svg version="1.0" xmlns="http://www.w3.org/2000/svg" width="300.000000pt" height="300.000000pt" viewBox="0 0 300.000000 300.000000" preserveAspectRatio="xMidYMid meet">
<metadata>
  <rdf:rdf xmlns:rdf="http://www.w3.org/1999/02/22-rdf-syntax-ns#" xmlns:rdfs="http://www.w3.org/2000/01/rdf-schema#" xmlns:dc="http://purl.org/dc/elements/1.1/">
    <rdf:description dc:title="dicaprio stencil" dc:publisher="Hiox" dc:date="2015-05-07" dc:format="image/svg+xml" dc:language="en">
      <dc:creator>
        <rdf:bag>
          <rdf:li>svgimages.com</rdf:li>
        </rdf:bag>
      </dc:creator>
    </rdf:description>
  </rdf:rdf>
</metadata>
<g transform="translate(0.000000,300.000000) scale(0.100000,-0.100000)" fill="#2E2E2D" stroke="none">
<path d="M1505 2849 c-32 -5 -84 -16 -115 -25 -36 -11 -97 -17 -175 -18 -114
-1 -124 -3 -186 -33 -102 -51 -179 -136 -294 -327 -78 -130 -97 -192 -103
-334 -7 -179 6 -248 110 -587 72 -233 96 -330 108 -430 24 -216 73 -320 214
-458 100 -98 101 -99 99 -144 -3 -73 -18 -99 -71 -117 -138 -49 -278 -110
-462 -199 -113 -54 -243 -115 -290 -134 -47 -19 -87 -37 -89 -39 -2 -2 615 -4
1373 -4 l1377 0 -3 117 -3 116 -55 38 c-30 20 -104 63 -165 94 -142 73 -182
107 -251 213 -31 48 -71 108 -88 135 -17 26 -46 54 -64 63 -23 11 -41 32 -62
74 -29 57 -30 64 -30 195 l0 135 26 0 c59 0 115 61 134 147 6 26 16 56 21 65
11 22 12 48 0 48 -5 0 -11 -17 -15 -38 -9 -62 -52 -146 -87 -176 -28 -24 -39
-27 -72 -22 l-39 7 4 -158 4 -158 49 -97 49 -96 -13 -56 c-15 -69 -79 -167
-186 -286 -92 -102 -157 -192 -200 -274 l-31 -61 -225 -3 c-256 -3 -246 -6
-270 88 -12 47 -15 50 -46 50 -37 0 -84 -36 -128 -100 -27 -40 -28 -40 -91
-40 -35 0 -64 2 -64 5 0 3 15 29 34 58 l34 52 -11 88 c-10 80 -9 94 11 162 12
41 22 86 22 100 0 32 10 32 41 -1 39 -42 97 -75 170 -95 86 -24 102 -24 198 1
121 31 154 52 392 248 119 98 199 211 213 302 3 19 3 28 0 20 -36 -86 -148
-230 -222 -283 -79 -57 -189 -86 -208 -55 -4 6 -6 66 -5 132 2 194 -18 237
-120 251 -58 8 -115 29 -141 52 -14 12 -23 13 -49 4 -18 -6 -70 -11 -116 -11
-64 0 -85 -3 -89 -15 -9 -22 -94 -75 -121 -75 -45 0 -56 -95 -27 -234 24 -115
18 -121 -48 -54 -102 104 -168 253 -182 413 -9 104 -37 220 -83 347 l-37 103
0 170 c0 137 4 188 21 266 12 53 25 135 29 183 6 79 9 89 36 111 38 32 118 35
163 5 17 -11 68 -39 115 -63 74 -37 93 -42 150 -42 57 1 148 23 225 55 65 27
229 70 267 70 55 0 103 -26 126 -67 9 -17 34 -61 55 -97 42 -72 83 -169 98
-234 6 -29 21 -53 45 -74 45 -40 80 -101 95 -166 l12 -52 43 0 c39 0 45 3 60
33 23 45 96 135 115 142 17 6 49 -3 49 -14 0 -3 -10 -11 -22 -16 -16 -7 -22
-18 -21 -35 3 -41 28 -121 39 -121 5 1 11 24 13 53 l5 53 7 -60 c6 -50 7 -44
5 36 -2 105 -12 129 -52 129 -24 0 -24 1 -24 105 0 90 3 112 22 148 30 57 30
160 0 237 -88 224 -382 478 -626 540 -89 23 -223 31 -301 19z m-25 -1879 c12
-8 11 -10 -7 -10 -12 0 -25 5 -28 10 -8 13 15 13 35 0z m-31 -11 c20 -6 43
-15 52 -20 9 -4 26 -5 38 -2 12 3 21 1 21 -6 0 -6 11 -8 30 -5 16 4 43 1 60
-6 30 -12 30 -13 30 -94 0 -88 -11 -119 -52 -149 -23 -17 -44 -20 -160 -21
-95 -1 -139 -5 -154 -15 -19 -12 -26 -12 -59 5 -52 26 -91 98 -100 184 l-6 65
56 29 c50 26 63 28 118 23 35 -3 68 -2 75 2 7 4 -15 8 -49 9 -34 1 -64 4 -67
7 -10 10 132 5 167 -6z" id="node1" class="node"></path>
<path d="M1446 913 c-6 -6 -172 -25 -234 -26 -19 0 -31 -5 -29 -11 3 -7 37
-10 98 -7 262 10 363 17 366 26 2 6 -19 10 -49 10 -29 0 -74 3 -99 7 -26 4
-49 4 -53 1z" id="node2" class="node"></path>
<path d="M1410 810 l-55 -7 52 -1 c28 -1 55 3 58 8 3 6 5 9 3 8 -2 -1 -28 -4
-58 -8z" id="node3" class="node"></path>
<path d="M1455 2089 c-27 -11 -64 -26 -82 -34 -40 -19 -119 -19 -173 0 -47 17
-70 19 -70 8 0 -5 35 -16 78 -26 70 -17 82 -17 137 -4 33 8 86 24 117 36 32
12 71 21 88 21 16 0 30 5 30 10 0 17 -72 10 -125 -11z" id="node4" class="node"></path>
<path d="M1370 1949 c-51 -15 -100 -19 -225 -20 l-160 -2 105 -9 c134 -12 242
-5 305 18 28 10 73 21 100 24 l50 7 -55 1 c-30 0 -84 -8 -120 -19z" id="node5" class="node"></path>
<path d="M1448 1873 c-10 -2 -18 -9 -18 -15 0 -6 12 -7 33 -1 17 4 51 8 74 8
22 0 39 3 36 8 -4 7 -96 8 -125 0z" id="node6" class="node"></path>
<path d="M1100 1822 c0 -6 21 -15 48 -21 89 -19 119 -37 131 -78 l10 -38 -5
40 c-7 52 -17 61 -89 80 -33 8 -67 18 -77 21 -10 3 -18 1 -18 -4z" id="node7" class="node"></path>
<path d="M1535 1727 c-73 -27 -125 -54 -125 -67 0 -24 37 -27 95 -8 37 12 100
22 165 25 96 4 111 2 173 -21 78 -30 87 -31 87 -11 0 33 -196 106 -284 104
-28 0 -78 -10 -111 -22z" id="node8" class="node"></path>
<path d="M892 1689 c-37 -11 -72 -59 -72 -101 0 -41 17 -43 53 -4 18 19 46 38
61 42 26 6 102 1 189 -12 98 -16 -12 48 -125 71 -38 8 -70 15 -71 14 -1 0 -17
-5 -35 -10z" id="node9" class="node"></path>
<path d="M1566 1580 c-115 -29 -127 -44 -79 -100 29 -35 150 -130 166 -130 5
0 -9 21 -33 46 -23 25 -40 47 -38 49 1 2 25 -1 52 -6 27 -5 51 -7 53 -5 3 2
-23 14 -56 27 -34 12 -64 26 -67 30 -3 5 30 9 73 9 43 0 98 5 123 11 31 7 58
7 93 -2 26 -6 51 -9 54 -5 3 3 -32 24 -78 46 -105 50 -158 56 -263 30z m54
-40 c0 -11 -7 -20 -15 -20 -15 0 -21 21 -8 33 12 13 23 7 23 -13z m152 5 c0
-5 -5 -11 -11 -13 -6 -2 -11 4 -11 13 0 9 5 15 11 13 6 -2 11 -8 11 -13z" id="node10" class="node"></path>
<path d="M2306 1565 c-14 -22 -15 -32 -7 -57 6 -17 11 -54 11 -82 1 -40 3 -47
11 -33 13 22 37 22 61 0 17 -15 18 -15 18 5 0 12 9 44 20 73 24 60 20 83 -18
98 -62 24 -78 24 -96 -4z" id="node11" class="node"></path>
<path d="M1006 1550 c-27 -8 -86 -56 -86 -70 0 -3 55 -4 123 -2 l122 4 -24
-25 c-13 -15 -43 -34 -67 -44 -63 -26 -54 -34 17 -17 34 8 63 13 65 11 2 -2
-17 -31 -42 -66 -26 -34 -44 -64 -42 -67 10 -9 105 76 152 136 58 74 56 84
-25 117 -64 25 -152 36 -193 23z m14 -45 c0 -8 -7 -15 -15 -15 -16 0 -20 12
-8 23 11 12 23 8 23 -8z" id="node12" class="node"></path>
<path d="M2473 1505 c0 -22 2 -30 4 -17 2 12 2 30 0 40 -3 9 -5 -1 -4 -23z" id="node13" class="node"></path>
<path d="M1526 1265 c4 -11 13 -29 21 -40 19 -28 16 -69 -6 -89 -16 -14 -26
-16 -54 -8 -19 6 -50 6 -69 2 l-33 -8 33 -7 c18 -4 35 -12 38 -16 7 -13 51
-11 77 3 32 17 46 39 47 72 l0 30 36 -35 c22 -20 32 -26 26 -14 -16 30 -124
133 -116 110z" id="node14" class="node"></path>
<path d="M1182 1218 c-7 -7 -12 -31 -12 -54 0 -53 33 -84 91 -84 47 0 49 10 8
34 -23 13 -34 15 -42 7 -31 -31 -52 8 -38 72 10 41 10 42 -7 25z" id="node15" class="node"></path>
<path d="M2150 688 c-77 -97 -169 -178 -300 -262 -114 -73 -153 -93 -287 -146
-138 -54 -184 -54 -244 -2 -24 20 -53 44 -63 52 -18 14 -19 14 -7 -8 21 -39
90 -100 127 -112 39 -13 63 -9 149 25 223 88 459 238 586 372 43 44 119 146
119 158 0 17 -22 -5 -80 -77z" id="node16" class="node"></path>
</g>
<g transform="translate(0.000000,300.000000) scale(0.100000,-0.100000)" fill="#FFFFFF" stroke="none">

<path d="M1597 1553 c-13 -12 -7 -33 8 -33 8 0 15 9 15 20 0 20 -11 26 -23 13z" id="node18" class="node"></path>
<path d="M1750 1545 c0 -9 5 -15 11 -13 6 2 11 8 11 13 0 5 -5 11 -11 13 -6 2
-11 -4 -11 -13z" id="node19" class="node"></path>
<path d="M997 1513 c-12 -11 -8 -23 8 -23 8 0 15 7 15 15 0 16 -12 20 -23 8z" id="node20" class="node"></path>


</g>
</svg>