<!--?xml version="1.0" standalone="no"?--><svg version="1.0" xmlns="http://www.w3.org/2000/svg" width="264.000000pt" height="300.000000pt" viewBox="0 0 264.000000 300.000000" preserveAspectRatio="xMidYMid meet">
<metadata>
  <rdf:rdf xmlns:rdf="http://www.w3.org/1999/02/22-rdf-syntax-ns#" xmlns:rdfs="http://www.w3.org/2000/01/rdf-schema#" xmlns:dc="http://purl.org/dc/elements/1.1/">
    <rdf:description dc:title="monalisa stencil" dc:publisher="Hiox" dc:date="2015-05-07" dc:format="image/svg+xml" dc:language="en">
      <dc:creator>
        <rdf:bag>
          <rdf:li>svgimages.com</rdf:li>
        </rdf:bag>
      </dc:creator>
    </rdf:description>
  </rdf:rdf>
</metadata>
<g transform="translate(0.000000,300.000000) scale(0.100000,-0.100000)" fill="#030303" stroke="none">
<path d="M1117 2813 c-2 -2 -35 -11 -73 -21 -81 -22 -165 -73 -229 -140 -52
-54 -129 -165 -140 -202 -4 -14 -27 -64 -51 -112 -24 -48 -52 -124 -63 -170
-10 -46 -28 -117 -39 -158 -12 -41 -26 -102 -32 -135 -6 -33 -15 -76 -20 -95
-5 -19 -10 -127 -11 -240 -1 -174 1 -212 16 -250 69 -179 71 -191 62 -380 -4
-85 -8 -102 -41 -165 -20 -38 -55 -96 -78 -129 -23 -32 -55 -85 -72 -117 -31
-58 -179 -282 -240 -362 -17 -23 -44 -63 -59 -89 l-28 -48 1311 0 1310 0 0
224 0 224 -36 27 c-47 36 -254 245 -254 256 0 21 -43 7 -71 -23 -26 -29 -29
-40 -29 -96 0 -53 -4 -69 -27 -98 -27 -36 -116 -86 -278 -155 -44 -18 -136
-62 -205 -97 -176 -89 -196 -93 -441 -93 -198 1 -300 13 -333 40 -6 5 -54 22
-106 39 -247 77 -291 114 -275 227 9 57 30 84 91 114 27 13 50 25 52 26 1 1
11 37 23 81 29 111 66 161 168 226 46 29 98 65 116 81 l33 27 -14 53 c-21 80
-18 114 11 133 37 24 31 34 -24 34 -61 0 -84 18 -185 144 -88 110 -97 128
-125 236 -37 147 -40 163 -41 245 0 89 9 107 50 99 17 -4 31 0 39 10 17 20 37
21 45 1 3 -8 17 -15 31 -15 28 0 32 -12 10 -30 -22 -18 -18 -32 5 -20 21 11
47 46 52 70 2 8 7 18 11 21 15 11 -5 38 -40 52 -34 13 -63 12 -135 -8 -21 -5
-29 -2 -39 16 -29 55 -5 278 39 368 24 48 34 58 87 83 33 15 66 28 73 28 33 0
70 30 76 62 7 36 32 75 42 65 3 -3 2 -26 -4 -50 -5 -25 -6 -50 -2 -57 4 -6 48
-15 98 -20 136 -13 192 -53 235 -170 18 -49 60 -100 82 -100 29 0 45 -31 45
-84 0 -58 -11 -73 -69 -96 -44 -18 -227 -19 -259 -3 -21 11 -28 9 -58 -14 -43
-32 -54 -52 -54 -97 0 -56 30 -47 83 25 32 45 87 62 147 47 55 -14 50 -26 -8
-20 -34 3 -58 -1 -78 -12 -22 -13 -24 -16 -7 -13 15 3 23 -1 26 -14 11 -42
149 -32 211 15 49 36 73 38 97 8 37 -46 19 -152 -53 -312 -6 -14 -12 -56 -13
-95 -2 -98 -36 -155 -131 -221 -22 -16 -64 -47 -92 -69 -28 -22 -63 -48 -77
-58 -23 -16 -26 -25 -23 -65 l3 -46 85 -28 c47 -15 98 -27 114 -28 16 0 38 -7
48 -16 16 -16 22 -16 74 -1 31 9 60 14 64 12 4 -3 20 -44 36 -92 26 -78 29
-102 28 -203 -1 -88 -6 -130 -22 -180 -27 -81 -28 -131 -4 -153 37 -34 82 -18
260 90 41 24 108 58 150 75 58 23 215 117 290 174 2 1 -7 19 -21 41 -55 87
-150 269 -168 320 -14 42 -19 84 -19 163 0 59 -7 151 -15 206 -9 54 -20 135
-25 179 -5 44 -14 107 -20 140 -6 33 -15 87 -20 120 -23 166 -61 353 -81 404
-6 13 -34 51 -63 85 -29 34 -64 79 -78 101 -35 56 -112 145 -145 167 -16 10
-66 29 -113 43 -47 14 -99 30 -117 35 -28 10 -247 12 -256 3z m-211 -777 c17
-13 15 -14 -21 -9 -23 3 -58 0 -78 -5 -38 -11 -50 -1 -19 17 25 15 95 13 118
-3z" id="node1" class="node"></path>
<path d="M1040 1693 c-8 -3 -25 -15 -37 -26 -20 -18 -26 -19 -50 -8 -26 11
-24 9 12 -28 31 -33 46 -41 75 -41 19 0 46 6 60 13 32 16 48 60 30 81 -12 16
-60 20 -90 9z" id="node2" class="node"></path>
<path d="M1115 1564 c-22 -7 -57 -16 -77 -19 -58 -9 -45 -25 20 -25 78 0 134
16 130 38 -4 22 -23 23 -73 6z" id="node3" class="node"></path>
<path d="M879 1546 c9 -10 29 -16 55 -16 48 1 33 13 -28 25 -36 6 -38 5 -27
-9z" id="node4" class="node"></path>
<path d="M995 1460 c3 -5 26 -10 51 -10 24 0 44 5 44 10 0 6 -23 10 -51 10
-31 0 -48 -4 -44 -10z" id="node5" class="node"></path>
</g>
<g transform="translate(0.000000,300.000000) scale(0.100000,-0.100000)" fill="#A0A0A0" stroke="none">


</g>
</svg>