<!--?xml version="1.0" standalone="no"?--><svg version="1.0" xmlns="http://www.w3.org/2000/svg" width="300.000000pt" height="300.000000pt" viewBox="0 0 300.000000 300.000000" preserveAspectRatio="xMidYMid meet">
<metadata>
  <rdf:rdf xmlns:rdf="http://www.w3.org/1999/02/22-rdf-syntax-ns#" xmlns:rdfs="http://www.w3.org/2000/01/rdf-schema#" xmlns:dc="http://purl.org/dc/elements/1.1/">
    <rdf:description dc:title="musician vector free" dc:publisher="Hiox" dc:date="2015-03-14" dc:format="image/svg+xml" dc:language="en">
      <dc:creator>
        <rdf:bag>
          <rdf:li>svgimages.com</rdf:li>
        </rdf:bag>
      </dc:creator>
    </rdf:description>
  </rdf:rdf>
</metadata>
<g transform="translate(0.000000,300.000000) scale(0.100000,-0.100000)" fill="#141414" stroke="none">
<path d="M763 2972 c-17 -2 -24 -12 -29 -40 -3 -20 -22 -63 -41 -95 -34 -57
-35 -59 -16 -79 12 -14 18 -37 20 -77 1 -46 5 -57 20 -60 25 -5 32 -19 33 -66
0 -63 14 -160 23 -157 4 1 15 2 26 2 15 0 19 11 25 63 4 34 7 81 6 105 -1 37
2 45 21 49 18 5 20 11 15 42 -3 20 -9 46 -12 59 -5 16 -2 22 9 22 9 0 28 11
43 25 23 21 24 26 10 31 -9 3 -22 1 -30 -5 -17 -14 -26 -4 -26 27 0 14 -4 41
-10 61 -5 20 -11 48 -14 62 -6 28 -30 38 -73 31z m-33 -177 c0 -8 -4 -15 -10
-15 -5 0 -7 7 -4 15 4 8 8 15 10 15 2 0 4 -7 4 -15z" id="node1" class="node" stroke-width="20"></path>
<path d="M470 2955 c-7 -8 -10 -24 -7 -35 3 -13 -2 -25 -14 -34 -26 -18 -62
-112 -53 -140 3 -11 12 -28 20 -36 24 -28 41 -130 34 -210 -8 -98 -7 -102 44
-98 l41 3 8 75 c4 41 13 98 19 125 7 28 11 70 9 95 -1 24 3 54 10 66 16 31 3
91 -27 121 -13 13 -24 32 -24 41 0 37 -38 54 -60 27z" id="node2" class="node" stroke-width="20"></path>
<path d="M2172 2958 c-7 -7 -12 -28 -12 -48 0 -29 -6 -39 -30 -53 -18 -11 -30
-26 -30 -39 0 -11 -8 -22 -18 -25 -15 -4 -17 -13 -14 -71 2 -37 9 -76 16 -87
10 -16 10 -29 0 -60 -7 -22 -12 -51 -12 -65 0 -15 8 1 20 38 13 41 25 62 35
62 25 0 13 -148 -15 -188 -12 -17 -19 -33 -14 -36 5 -3 41 -6 81 -7 64 -2 75
1 99 23 21 20 42 27 92 32 35 3 68 10 73 15 6 6 4 22 -5 43 -9 18 -24 55 -33
81 -18 48 -42 77 -109 130 -42 34 -47 56 -12 50 18 -4 31 4 57 36 18 23 40 41
48 40 9 -1 23 -1 31 0 29 2 -12 21 -47 21 -17 0 -34 4 -37 9 -8 12 -66 20 -66
8 0 -5 -7 -4 -15 3 -11 9 -14 22 -10 42 4 17 2 35 -5 43 -15 18 -52 19 -68 3z" id="node3" class="node" stroke-width="20"></path>
<path d="M1192 2944 c-26 -11 -32 -19 -27 -34 5 -17 2 -20 -24 -20 -34 0 -130
-23 -158 -39 -16 -8 -20 -23 -21 -80 -2 -62 1 -73 24 -100 25 -30 26 -37 23
-119 -4 -80 -2 -87 16 -91 11 -2 26 -12 33 -22 9 -13 24 -19 45 -18 18 0 53
-7 79 -17 l46 -18 21 24 c14 17 20 40 21 70 0 25 3 75 6 112 l7 66 -37 24
c-37 24 -52 48 -16 26 17 -11 27 -10 60 10 30 17 49 21 77 16 27 -4 44 -1 58
10 l20 16 -20 15 c-12 10 -28 13 -40 9 -11 -4 -41 -9 -66 -11 -44 -5 -47 -3
-52 23 -4 21 0 32 14 42 15 10 17 17 9 32 -5 10 -10 30 -10 44 0 15 -8 30 -19
36 -24 12 -28 12 -69 -6z m-98 -328 c30 -13 36 -21 47 -70 7 -31 10 -59 6 -62
-3 -3 -23 -8 -45 -11 l-40 -5 -6 53 c-4 30 -9 66 -12 82 -6 31 2 33 50 13z
m-52 -99 c5 -38 3 -47 -9 -45 -8 2 -14 6 -14 11 1 4 1 33 2 65 0 65 13 48 21
-31z m118 -67 c0 -5 -20 -10 -45 -10 -25 0 -45 5 -45 10 0 6 20 10 45 10 25 0
45 -4 45 -10z" id="node4" class="node" stroke-width="20"></path>
<path d="M1613 2934 c-12 -15 -19 -33 -16 -40 8 -21 -6 -66 -18 -58 -6 3 -8
13 -5 21 8 20 -11 43 -36 43 -24 0 -34 -27 -19 -52 8 -13 9 -24 3 -31 -21 -26
-36 -174 -19 -180 12 -4 -13 -67 -27 -67 -18 0 -36 -45 -36 -90 0 -31 6 -43
29 -59 16 -12 34 -21 39 -21 6 0 12 -4 14 -10 2 -6 18 -5 43 1 22 6 54 11 70
12 24 2 29 6 27 22 -2 11 -3 34 -4 50 0 17 -6 52 -14 79 -8 28 -11 52 -6 55
11 9 32 59 32 78 0 9 -6 24 -13 32 -17 20 -37 89 -37 126 0 18 6 28 19 32 19
5 37 43 20 43 -5 0 -9 9 -9 20 0 27 -12 25 -37 -6z" id="node5" class="node" stroke-width="20"></path>
<path d="M2720 2945 c-7 -8 -10 -26 -7 -41 3 -20 -1 -27 -18 -34 -17 -6 -26
-22 -35 -59 -7 -28 -9 -58 -6 -66 5 -13 -13 -15 -119 -15 l-125 0 0 -25 c0
-23 3 -25 50 -25 29 0 50 -5 50 -11 0 -6 8 -8 18 -5 12 3 28 -9 55 -42 53 -67
52 -111 -5 -169 -23 -23 -39 -46 -35 -49 4 -4 13 -1 21 5 9 7 41 15 72 17 32
2 59 6 62 9 3 3 0 17 -7 32 -10 26 -9 25 18 -7 17 -19 31 -45 31 -57 0 -30 40
-32 47 -3 3 11 9 20 14 20 5 0 9 42 9 94 0 51 3 107 6 124 6 31 7 31 78 34 69
3 71 4 74 31 l3 27 -66 0 c-42 0 -64 4 -60 10 4 6 1 35 -5 66 -10 45 -17 58
-38 67 -20 9 -26 18 -24 35 6 43 -33 68 -58 37z m-100 -302 c0 -36 0 -36 -21
-17 -11 10 -25 27 -30 36 -8 15 -5 18 21 18 28 0 30 -3 30 -37z m110 -12 c0
-11 -41 -63 -46 -58 -9 9 19 67 32 67 8 0 14 -4 14 -9z m57 -43 c-3 -7 -5 -2
-5 12 0 14 2 19 5 13 2 -7 2 -19 0 -25z m-57 -59 c0 -41 -3 -58 -11 -53 -6 3
-8 15 -6 26 4 14 2 17 -7 9 -7 -6 -16 -8 -19 -5 -10 10 24 84 39 84 2 0 4 -27
4 -61z m57 -91 c-3 -7 -5 -2 -5 12 0 14 2 19 5 13 2 -7 2 -19 0 -25z" id="node6" class="node" stroke-width="20"></path>
<path d="M54 2923 c3 -16 16 -114 28 -220 18 -160 20 -196 9 -216 -21 -40 -11
-61 34 -68 27 -5 43 -2 53 7 7 8 18 14 23 14 6 0 8 8 5 18 -3 9 -2 31 3 47 l9
30 1 -28 c1 -20 5 -26 13 -21 10 6 10 4 0 -8 -18 -23 8 -30 43 -12 15 8 35 13
44 12 14 -3 16 16 13 177 -2 99 -7 184 -12 189 -6 6 -10 20 -10 32 0 12 -7 27
-16 34 -12 11 -18 10 -31 -3 -14 -14 -15 -21 -4 -43 6 -15 10 -27 9 -28 -2 -1
-15 -7 -30 -14 -27 -11 -28 -10 -49 39 -17 38 -31 55 -60 70 -21 10 -48 19
-60 19 -18 0 -20 -4 -15 -27z m103 -104 c35 -53 44 -61 64 -56 11 3 19 4 19 3
0 -12 -103 -217 -106 -213 -9 8 -35 280 -29 295 8 20 27 10 52 -29z m93 -176
c-11 -17 -11 -17 -6 0 3 10 6 24 7 30 0 9 2 9 5 0 3 -7 0 -20 -6 -30z" id="node7" class="node" stroke-width="20"></path>
<path d="M1804 2935 c-4 -8 -4 -29 -1 -44 5 -24 1 -32 -18 -45 -27 -18 -33
-63 -16 -121 6 -22 4 -34 -6 -44 -11 -10 -12 -16 -4 -24 7 -7 11 -60 11 -138
0 -106 3 -128 16 -133 48 -18 67 15 65 111 -1 56 1 61 19 56 18 -5 20 -14 20
-84 0 -46 4 -79 10 -79 6 0 10 10 10 21 0 20 1 21 25 5 13 -9 33 -16 45 -16
17 0 18 3 9 18 -9 14 -9 40 -2 98 9 71 8 83 -10 122 -12 23 -25 42 -29 42 -4
0 -8 16 -8 36 0 65 -20 123 -48 137 -21 10 -26 19 -26 52 -1 36 -4 40 -29 43
-18 2 -29 -2 -33 -13z m117 -421 l-9 -39 -1 41 c-1 22 2 44 6 48 12 12 14 -8
4 -50z" id="node8" class="node" stroke-width="20"></path>

<path d="M633 2359 c-14 -5 -24 -20 -28 -41 -10 -51 -26 -65 -88 -77 -66 -14
-76 -25 -50 -54 10 -12 20 -35 22 -52 1 -16 10 -41 18 -54 13 -21 15 -46 10
-153 -7 -143 7 -167 18 -33 4 54 11 83 17 79 6 -4 8 -26 5 -55 -4 -29 -2 -49
3 -49 6 0 10 16 10 35 0 45 16 45 23 0 6 -40 -8 -102 -30 -127 -16 -18 -10
-38 12 -38 22 0 55 41 55 68 0 30 21 102 29 102 10 0 27 -33 41 -82 11 -36 19
-47 39 -51 49 -10 67 15 33 46 -36 33 -25 275 12 261 8 -3 30 8 49 25 19 17
44 31 56 31 23 0 37 22 26 39 -4 7 -18 6 -42 -4 -19 -8 -48 -15 -63 -15 -23 0
-29 6 -38 38 -7 23 -21 43 -34 49 -16 7 -25 24 -33 58 -11 52 -33 69 -72 54z
m117 -270 c0 -11 -4 -17 -10 -14 -5 3 -10 15 -10 26 0 11 5 17 10 14 6 -3 10
-15 10 -26z m-188 -74 c0 -5 -5 -11 -11 -13 -6 -2 -11 4 -11 13 0 9 5 15 11
13 6 -2 11 -8 11 -13z" id="node10" class="node" stroke-width="20"></path>
<path d="M146 2341 c-10 -10 -16 -26 -14 -34 2 -9 -5 -22 -14 -29 -9 -7 -34
-53 -56 -103 l-40 -90 18 -128 c28 -192 25 -184 70 -192 22 -4 49 -3 61 0 20
7 21 9 8 19 -32 23 -39 55 -39 180 0 101 4 133 20 170 21 51 27 54 46 29 17
-23 35 -7 50 45 l10 37 17 -32 c14 -27 17 -61 14 -237 -1 -132 2 -206 8 -206
6 0 9 67 7 187 -4 171 -3 186 12 174 22 -19 20 -10 -14 61 -16 34 -30 67 -30
75 0 7 -4 13 -10 13 -5 0 -10 5 -10 11 0 6 7 9 15 5 8 -3 15 -1 15 4 0 6 -16
10 -35 10 -28 0 -35 4 -35 19 0 11 -9 21 -22 25 -32 8 -33 8 -52 -13z" id="node11" class="node" stroke-width="20"></path>
<path d="M1191 2319 c-15 -24 -17 -38 -10 -62 8 -28 5 -34 -24 -58 -17 -15
-42 -30 -55 -34 -38 -10 -104 -55 -99 -68 5 -13 20 -14 54 -3 21 7 21 5 13
-25 -5 -17 -8 -35 -7 -39 1 -4 -10 -19 -25 -33 -16 -14 -28 -24 -28 -22 0 2
-13 -8 -30 -23 -43 -40 -56 -82 -35 -122 9 -17 23 -34 31 -37 7 -3 14 -13 14
-23 0 -13 5 -17 20 -13 11 3 31 -2 45 -11 49 -32 80 -16 101 53 l12 36 1 -32
c1 -17 6 -35 11 -38 6 -4 10 19 10 63 0 38 2 71 4 73 3 2 25 3 50 1 l46 -4 0
-63 c0 -35 5 -67 10 -70 6 -4 10 22 10 69 0 43 4 76 10 76 11 0 4 76 -12 127
-11 39 -3 59 18 42 17 -14 44 4 44 31 0 24 -55 97 -80 105 -11 3 -18 11 -14
16 3 6 12 8 20 5 17 -7 28 11 31 52 2 33 -13 42 -34 21 -7 -7 -18 -3 -36 15
-34 33 -43 33 -66 -5z" id="node12" class="node" stroke-width="20"></path>
<path d="M1612 2318 c-7 -7 -12 -26 -12 -44 0 -19 -6 -34 -14 -37 -28 -11 -46
-64 -50 -149 -2 -47 -9 -94 -16 -105 -17 -26 -7 -53 19 -53 11 0 22 -9 25 -20
3 -11 9 -29 12 -40 4 -14 1 -20 -10 -20 -9 0 -16 -4 -16 -10 0 -5 5 -10 10
-10 6 0 10 -16 10 -35 0 -33 -2 -35 -36 -35 -21 0 -33 -4 -29 -10 3 -5 35 -10
71 -10 36 0 64 4 64 10 0 6 -12 10 -26 10 -20 0 -25 4 -20 16 3 9 6 24 6 35 0
15 7 19 33 20 l32 1 -32 9 c-33 10 -42 22 -23 34 6 3 7 17 4 31 -5 17 -2 24 9
24 8 0 17 6 20 13 3 9 11 8 33 -5 31 -18 48 -59 39 -95 -3 -13 -2 -23 3 -23 5
0 8 -10 8 -22 -1 -17 7 -25 31 -32 17 -6 34 -18 36 -28 7 -25 25 -23 30 5 l4
22 2 -22 c0 -13 6 -23 12 -23 7 0 9 16 4 50 -6 46 -5 50 14 50 12 0 21 5 21
10 0 6 -9 10 -20 10 -23 0 -24 1 -9 34 6 13 20 27 30 29 27 7 24 37 -13 112
l-33 66 -62 -3 c-76 -3 -98 13 -107 79 -5 35 -2 48 9 57 9 6 18 30 20 54 3 33
1 44 -15 52 -25 13 -53 13 -68 -2z m205 -460 c-2 -13 -4 -5 -4 17 -1 22 1 32
4 23 2 -10 2 -28 0 -40z" id="node13" class="node" stroke-width="20"></path>
<path d="M2158 2319 c-13 -7 -18 -23 -18 -51 0 -31 -7 -49 -26 -69 -14 -15
-31 -49 -38 -75 l-13 -49 -13 28 c-15 31 -28 35 -37 10 -7 -17 2 -55 35 -142
18 -48 18 -57 6 -99 -9 -28 -11 -49 -5 -55 5 -5 5 -22 0 -40 -11 -40 -11 -57
-1 -57 5 0 14 25 21 55 12 55 31 83 31 47 0 -20 18 -32 49 -32 10 0 38 23 62
52 l43 52 11 -62 c13 -72 25 -91 25 -41 0 60 46 83 57 29 7 -36 23 -38 69 -9
35 21 50 67 19 55 -10 -3 -18 1 -21 12 -26 82 -59 144 -85 158 -26 13 -28 16
-16 41 9 21 9 27 -1 31 -6 2 -12 11 -12 21 0 10 -14 33 -31 52 -27 30 -30 40
-26 77 4 39 2 44 -24 57 -33 17 -38 18 -61 4z m93 -150 c34 -37 35 -41 10 -63
-25 -23 -37 -15 -45 30 -4 19 -10 42 -13 50 -9 25 18 15 48 -17z m-133 -279
c-14 -22 -24 -19 -15 5 4 8 11 15 17 15 6 0 6 -7 -2 -20z" id="node14" class="node" stroke-width="20"></path>
<path d="M2691 2302 c-6 -10 -8 -27 -6 -38 6 -25 -33 -73 -44 -55 -5 7 -17 11
-27 9 -17 -3 -19 -14 -22 -98 -2 -80 -6 -97 -23 -113 -17 -16 -20 -30 -18 -79
2 -49 -1 -62 -15 -70 -17 -9 -16 -12 12 -37 45 -40 66 -50 84 -40 13 7 15 22
11 84 -5 72 -4 75 16 75 21 0 21 -1 6 -30 -14 -27 -13 -33 6 -81 11 -29 18
-63 15 -75 -13 -51 45 -35 63 17 8 24 8 41 -1 67 -11 30 -11 35 7 48 38 28 50
14 53 -64 4 -92 22 -95 22 -3 0 68 1 71 33 95 19 15 37 26 40 26 4 0 7 -30 7
-67 0 -122 18 -52 25 99 l7 146 -32 7 c-17 4 -46 21 -64 38 -18 18 -43 40 -55
50 -17 14 -21 25 -17 43 4 13 2 33 -4 44 -14 26 -66 27 -79 2z m-10 -125 c-11
-19 -21 -44 -21 -56 0 -16 -5 -21 -17 -19 -13 2 -19 15 -21 47 -3 41 -2 43 14
31 14 -13 19 -11 38 11 29 36 33 28 7 -14z m222 -174 c9 -3 17 -12 17 -20 0
-11 -5 -13 -17 -8 -10 4 -26 10 -35 12 -10 3 -18 12 -18 20 0 11 5 13 18 8 9
-4 25 -10 35 -12z" id="node15" class="node" stroke-width="20"></path>
<path d="M1938 1683 c-36 -38 -53 -104 -37 -146 10 -30 9 -36 -13 -60 -16 -17
-51 -35 -94 -48 -38 -12 -75 -26 -82 -31 -24 -20 -122 -205 -122 -231 0 -21
-4 -25 -17 -21 -30 10 -168 77 -173 85 -5 7 -45 14 -142 25 -48 6 -59 4 -64
-10 -9 -24 11 -42 82 -76 l63 -30 -5 -68 c-2 -37 -4 -148 -4 -247 0 -130 -4
-181 -13 -187 -9 -6 -9 -10 1 -20 8 -8 12 -43 12 -98 l0 -85 -64 -60 c-36 -33
-83 -75 -105 -93 -33 -27 -81 -97 -81 -118 0 -3 10 -4 23 -2 15 2 23 11 25 28
4 26 78 110 97 110 5 0 21 -12 34 -26 21 -21 22 -28 12 -50 -15 -33 -14 -44 3
-44 19 0 24 -27 14 -65 -5 -17 -4 -33 2 -39 16 -16 27 5 33 64 6 47 5 51 -5
30 l-12 -25 -4 33 c-4 38 5 54 18 33 5 -9 18 -12 38 -8 l31 6 -16 -37 c-8 -20
-18 -39 -22 -42 -17 -12 -20 -41 -5 -47 18 -7 27 1 29 25 2 23 36 125 45 135
4 5 12 -4 17 -20 6 -15 35 -53 64 -84 42 -43 65 -59 101 -67 62 -16 180 -13
210 4 46 26 74 36 125 43 49 7 52 6 58 -17 3 -14 2 -28 -4 -31 -14 -9 -2 -51
15 -51 21 0 29 29 16 51 -13 21 -15 59 -4 74 4 6 21 20 37 31 l31 21 -4 -33
c-3 -27 -1 -34 13 -34 13 0 15 6 10 30 -5 24 -1 38 24 69 26 32 31 48 31 90 0
45 2 51 21 51 21 0 22 -3 16 -63 l-6 -63 49 -42 c27 -23 54 -42 60 -42 7 0 10
-6 7 -14 -9 -22 18 -27 52 -10 21 11 31 23 31 38 0 24 19 45 58 66 21 10 29 8
63 -16 21 -15 40 -32 41 -38 5 -37 8 -77 8 -123 1 -47 3 -53 21 -53 17 0 20 5
18 34 -2 19 0 38 4 42 4 4 7 20 7 36 0 18 5 28 15 28 9 0 46 20 83 45 37 25
74 45 83 45 25 0 118 -77 129 -106 11 -28 37 -41 52 -26 20 20 -109 133 -167
146 -31 8 -135 82 -135 97 0 5 -6 9 -14 9 -12 0 -15 21 -18 101 -3 103 1 131
17 130 9 -1 10 3 7 30 -1 6 -9 9 -17 5 -12 -4 -15 6 -15 59 0 55 2 63 16 58
12 -4 15 0 12 18 -2 13 -9 23 -16 22 -9 -2 -12 19 -12 74 l0 77 63 -62 c34
-34 67 -62 72 -62 5 0 -21 31 -58 68 -37 37 -65 71 -61 74 3 4 3 15 0 26 -5
13 -13 18 -29 15 -16 -3 -36 10 -70 43 l-49 47 31 13 c91 38 161 116 140 155
-28 53 -168 46 -314 -16 -21 -9 -41 -13 -43 -9 -1 5 -22 45 -45 89 -40 75 -46
81 -110 116 -91 49 -94 52 -79 93 16 43 -1 131 -31 164 -29 32 -76 29 -109 -5z
m-477 -585 c9 -15 1 -31 -12 -23 -5 4 -9 -3 -9 -15 0 -12 5 -18 10 -15 6 3 10
2 10 -4 0 -14 -11 -19 -58 -27 l-42 -7 0 37 c0 23 5 39 15 42 8 4 15 14 15 24
0 16 4 17 32 9 17 -5 35 -14 39 -21z m50 5 c5 -56 20 -75 48 -66 14 5 14 4 -1
-12 -13 -14 -22 -15 -45 -8 -24 8 -28 15 -31 51 -2 33 0 42 12 42 9 0 16 -3
17 -7z m239 -45 c0 -5 -12 -8 -27 -8 -26 0 -26 0 -8 20 14 16 20 17 27 8 4 -7
8 -16 8 -20z m783 -36 c26 -27 45 -51 42 -54 -4 -3 1 -22 9 -41 17 -41 18 -67
17 -352 l-1 -211 -42 -32 -43 -33 -6 38 c-4 24 -2 45 7 59 8 11 11 24 7 27 -7
8 -11 70 -15 250 l-3 127 -83 0 -84 0 -59 61 c-65 67 -72 90 -34 107 14 6 25
17 25 23 0 23 33 49 64 50 17 0 51 6 76 13 69 20 72 19 123 -32z m-1095 -29
c-16 -2 -40 -2 -55 0 -16 2 -3 4 27 4 30 0 43 -2 28 -4z m100 0 c-10 -2 -28
-2 -40 0 -13 2 -5 4 17 4 22 1 32 -1 23 -4z m-120 -19 c18 -4 31 -13 33 -23 1
-9 1 -96 1 -194 l-1 -179 -38 -74 c-21 -41 -41 -74 -45 -74 -4 0 -7 124 -7
275 -1 299 -5 281 57 269z m135 -18 c3 -7 1 -31 -5 -52 -20 -78 -20 -94 -4
-119 9 -14 27 -27 40 -31 20 -5 23 -11 22 -45 -1 -32 -4 -39 -22 -39 -11 0
-31 -12 -45 -26 -13 -14 -33 -30 -43 -36 -18 -10 -19 -7 -13 42 4 29 11 58 16
64 8 9 6 19 -4 32 -18 24 -20 144 -3 191 9 24 18 33 34 33 12 0 24 -6 27 -14z
m571 -316 c3 -19 6 -48 6 -64 l0 -29 -28 39 c-16 21 -40 45 -55 53 -49 26 -42
42 17 39 54 -2 54 -3 60 -38z m-811 -292 c-22 -78 -26 -82 -47 -59 -17 19 -17
21 20 65 21 25 39 46 41 46 1 0 -5 -24 -14 -52z m88 11 c14 -49 10 -95 -11
-114 -11 -10 -22 -16 -25 -13 -3 2 -2 39 1 82 7 77 21 95 35 45z m1089 -33 c0
-52 -1 -54 -31 -60 -17 -3 -44 -15 -61 -27 -16 -12 -33 -18 -38 -13 -14 16
-19 122 -7 133 7 5 33 11 57 14 25 2 53 4 63 5 14 2 17 -7 17 -52z m-155 -74
c-9 -9 -24 48 -18 65 5 13 9 8 15 -21 5 -21 6 -41 3 -44z m260 41 c-4 -28 -3
-33 4 -18 8 17 10 15 10 -14 1 -19 -2 -32 -5 -28 -4 3 -14 -3 -23 -15 -17 -20
-17 -20 -44 12 l-27 32 42 34 c24 19 44 34 46 34 2 0 0 -17 -3 -37z m155 -44
c0 -6 -94 -69 -104 -69 -7 0 -18 129 -11 140 6 10 115 -56 115 -71z m-1420 0
c0 -11 -4 -17 -10 -14 -5 3 -10 13 -10 21 0 8 5 14 10 14 6 0 10 -9 10 -21z
m1270 -117 c0 -30 -8 -45 -20 -37 -9 6 0 65 11 65 5 0 9 -13 9 -28z" id="node16" class="node" stroke-width="20"></path>
<path d="M79 1688 c-9 -7 -23 -26 -33 -41 -17 -28 -17 -29 1 -23 17 5 19 1 20
-43 1 -56 21 -89 78 -128 18 -12 37 -33 42 -45 4 -13 8 -75 9 -138 0 -63 7
-152 16 -197 9 -47 11 -87 6 -96 -4 -9 -4 -27 2 -41 8 -23 15 -26 56 -26 44 0
46 1 31 18 -8 9 -17 24 -18 32 -5 22 21 80 36 80 33 0 35 142 4 255 -10 38
-19 91 -19 117 0 42 3 49 29 62 45 24 81 73 81 111 0 19 5 37 10 40 18 11 12
47 -7 43 -11 -2 -23 -24 -35 -63 -18 -61 -38 -85 -70 -85 -13 0 -18 8 -18 25
0 34 -45 73 -77 67 -17 -3 -23 -11 -23 -31 -1 -14 -10 -37 -21 -50 -17 -21
-22 -23 -43 -11 -16 8 -28 27 -35 56 -12 45 -6 94 10 94 5 0 9 7 9 15 0 18
-21 20 -41 3z" id="node17" class="node" stroke-width="20"></path>
<path d="M971 1634 c-23 -30 -26 -40 -11 -49 19 -12 10 -36 -18 -46 -19 -6
-36 -25 -50 -55 -19 -39 -21 -51 -12 -84 6 -22 15 -42 21 -45 6 -4 7 -24 3
-51 -4 -31 -2 -51 8 -67 30 -45 39 -273 13 -293 -37 -28 -8 -44 41 -22 22 10
28 10 39 -5 7 -9 22 -17 34 -17 17 0 21 6 23 38 0 20 1 44 0 52 -1 8 6 56 14
105 11 63 14 120 10 193 -3 56 -3 102 0 102 3 0 13 -4 23 -9 25 -14 45 2 39
33 -5 26 13 53 29 43 4 -3 21 6 38 19 22 17 27 26 18 35 -12 12 -60 -8 -82
-35 -20 -24 -29 -20 -51 24 -13 26 -27 40 -40 40 -27 0 -31 12 -18 48 10 27 9
34 -7 51 -24 28 -39 26 -64 -5z m-41 -236 c0 -18 -2 -20 -9 -8 -6 8 -7 18 -5
22 9 14 14 9 14 -14z" id="node18" class="node" stroke-width="20"></path>
<path d="M840 1643 c-8 -3 -30 -22 -50 -41 -19 -18 -46 -40 -60 -47 -26 -13
-124 -27 -133 -19 -2 3 -1 20 3 39 6 27 4 37 -11 51 -16 14 -24 15 -44 6 -26
-12 -35 -54 -15 -67 16 -10 -8 -45 -30 -45 -25 0 -36 -22 -43 -87 -4 -38 -2
-55 8 -63 11 -9 12 -17 5 -30 -6 -10 -10 -51 -10 -91 0 -40 -6 -109 -14 -153
-27 -154 -28 -174 -5 -186 20 -11 59 -5 59 9 0 4 -5 12 -11 18 -7 7 -5 35 9
94 11 46 23 107 27 134 4 28 9 57 12 65 5 16 67 -128 78 -182 14 -73 38 -116
67 -122 15 -3 35 -3 44 1 13 5 11 10 -10 32 -16 17 -29 47 -36 80 -5 29 -12
57 -15 62 -4 5 -10 36 -16 69 -7 44 -6 65 3 79 10 16 9 31 -6 76 -25 81 -16
108 48 144 28 17 71 50 94 75 23 24 50 47 61 51 11 3 19 15 19 30 0 26 -3 27
-28 18z" id="node19" class="node" stroke-width="20"></path>
<path d="M112 833 c-22 -9 -42 -70 -32 -102 5 -19 4 -33 -3 -40 -7 -7 -15 -42
-19 -79 -5 -37 -11 -83 -15 -102 -16 -88 1 -187 40 -228 15 -17 27 -44 31 -72
4 -25 13 -57 20 -72 13 -24 12 -28 -5 -44 -54 -49 23 -63 80 -15 l35 30 -12
51 c-7 28 -12 63 -12 76 0 14 -10 38 -22 54 -14 19 -21 42 -20 66 2 57 11 73
47 88 l34 14 -14 52 c-12 45 -12 51 1 46 9 -3 19 3 25 18 9 19 6 33 -16 76
l-27 54 22 18 c28 23 73 89 65 96 -10 10 -38 -12 -70 -56 -34 -46 -44 -51 -42
-22 1 11 5 20 9 20 4 0 4 7 1 17 -4 11 -3 14 5 9 7 -4 12 -1 12 7 0 16 -27 30
-41 21 -5 -3 -19 2 -31 10 -24 17 -26 17 -46 9z" id="node20" class="node" stroke-width="20"></path>
<path d="M486 824 c-9 -8 -16 -32 -16 -52 0 -43 -5 -51 -42 -75 -25 -15 -28
-24 -28 -71 0 -29 -6 -118 -14 -197 -24 -238 -26 -273 -20 -267 3 4 12 68 19
145 27 278 27 276 41 261 11 -10 11 -22 4 -48 -14 -47 2 -179 37 -318 16 -62
16 -63 -8 -88 -20 -21 -21 -27 -9 -35 8 -5 24 -7 35 -4 11 2 26 5 34 5 10 0
12 12 6 58 -3 31 -9 68 -12 82 -5 24 -4 24 12 8 13 -12 19 -36 21 -90 2 -58 6
-74 20 -76 31 -7 34 12 23 148 -6 74 -10 178 -9 230 1 87 4 97 27 122 23 24
25 32 18 75 -9 60 -19 80 -46 88 -15 5 -19 13 -15 29 6 26 -27 86 -48 86 -8 0
-22 -7 -30 -16z" id="node21" class="node" stroke-width="20"></path>
<path d="M820 820 c-16 -16 -18 -24 -9 -50 13 -37 6 -60 -19 -60 -34 0 -108
-113 -92 -140 5 -8 9 -30 8 -47 -1 -18 6 -41 14 -50 15 -18 22 -65 37 -253 7
-90 -1 -140 -21 -140 -4 0 -8 -7 -8 -15 0 -22 43 -19 74 6 14 11 24 24 21 29
-3 4 1 57 7 116 13 120 16 117 38 -50 9 -75 32 -105 78 -106 26 0 28 16 5 43
-16 17 -18 42 -18 213 0 107 3 194 7 194 4 0 14 7 23 16 12 12 14 27 9 59 l-6
44 60 30 c33 17 72 32 88 35 15 3 32 10 38 16 5 5 18 10 29 10 12 0 17 6 15
18 -5 24 -53 18 -98 -13 -59 -40 -131 -69 -140 -55 -4 6 -18 17 -31 24 -18 9
-24 21 -25 46 -2 62 -4 68 -20 84 -21 21 -40 20 -64 -4z" id="node22" class="node" stroke-width="20"></path>

<path d="M312 64 c-19 -19 -30 -34 -24 -34 13 0 62 47 62 60 0 13 1 14 -38
-26z" id="node24" class="node" stroke-width="20"></path>
</g>
<g transform="translate(0.000000,300.000000) scale(0.100000,-0.100000)" fill="#FFFFFF" stroke="none">






































</g>
</svg>