<!--?xml version="1.0" standalone="no"?--><svg version="1.0" xmlns="http://www.w3.org/2000/svg" width="273.000000pt" height="300.000000pt" viewBox="0 0 273.000000 300.000000" preserveAspectRatio="xMidYMid meet">
<metadata>
  <rdf:rdf xmlns:rdf="http://www.w3.org/1999/02/22-rdf-syntax-ns#" xmlns:rdfs="http://www.w3.org/2000/01/rdf-schema#" xmlns:dc="http://purl.org/dc/elements/1.1/">
    <rdf:description dc:title="nelson mandela stencil" dc:publisher="Hiox" dc:date="2015-05-07" dc:format="image/svg+xml" dc:language="en">
      <dc:creator>
        <rdf:bag>
          <rdf:li>svgimages.com</rdf:li>
        </rdf:bag>
      </dc:creator>
    </rdf:description>
  </rdf:rdf>
</metadata>
<g transform="translate(0.000000,300.000000) scale(0.100000,-0.100000)" fill="#070707" stroke="none">
<path d="M1175 2900 c-22 -5 -64 -18 -93 -29 -29 -12 -63 -21 -76 -21 -46 0
-108 -30 -153 -74 -24 -24 -56 -49 -71 -56 -15 -6 -47 -36 -72 -67 -25 -30
-53 -64 -62 -75 -26 -30 -22 -66 12 -136 16 -34 37 -93 46 -132 9 -41 26 -82
39 -98 20 -23 25 -25 39 -12 10 7 36 45 59 84 67 115 85 134 201 210 223 147
298 169 432 126 74 -23 150 -58 165 -76 15 -18 1 -40 -49 -79 -26 -20 -57 -55
-69 -77 l-22 -41 26 -46 c15 -25 30 -50 34 -55 8 -10 -20 -76 -33 -76 -4 0 -8
-7 -8 -15 0 -9 12 -18 30 -21 17 -4 30 -13 30 -21 0 -8 11 -29 25 -45 28 -33
29 -57 5 -68 -19 -9 -68 -34 -148 -78 -73 -39 -86 -63 -97 -169 -5 -54 -3 -77
8 -99 8 -16 18 -57 22 -92 6 -49 4 -68 -9 -87 -26 -40 -55 -49 -151 -50 -73 0
-90 -3 -90 -15 0 -12 19 -17 85 -22 156 -13 198 -31 213 -90 6 -22 -131 -73
-171 -64 -72 18 -116 22 -160 15 -40 -6 -55 -4 -99 18 -63 31 -83 22 -83 -36
0 -61 45 -102 77 -70 15 15 43 -2 77 -46 30 -39 105 -80 119 -66 12 12 -17 67
-57 110 l-31 33 149 -7 c82 -4 159 -11 170 -15 15 -6 16 -9 5 -9 -12 -1 -18
-14 -22 -48 -6 -60 -46 -99 -110 -108 -98 -15 -89 -42 28 -80 48 -16 89 -35
92 -42 3 -7 11 -13 19 -13 22 0 17 -23 -15 -66 -48 -67 -68 -79 -121 -78 -26
1 -61 9 -78 18 -17 9 -43 16 -57 16 -77 0 -143 67 -217 222 -108 223 -121 255
-107 263 5 4 16 -11 24 -32 17 -42 62 -131 78 -151 6 -8 14 -9 19 -4 6 6 -4
37 -25 78 -55 109 -53 134 13 210 44 51 62 84 44 84 -4 0 -32 -22 -64 -50 -70
-61 -104 -75 -140 -60 -52 22 -130 138 -130 194 0 12 15 54 34 93 36 74 69
103 117 103 13 0 39 11 60 25 32 23 45 26 105 23 l69 -3 -29 -27 c-23 -22 -26
-29 -13 -33 26 -11 96 14 108 38 7 12 18 26 25 30 8 4 14 18 14 31 0 32 -45
50 -102 41 -48 -8 -214 -60 -240 -75 -42 -24 -38 8 7 52 40 39 52 90 23 96
-12 2 -25 -9 -40 -35 l-23 -38 -3 64 c-2 37 -10 74 -19 88 l-17 25 -17 -21
c-10 -13 -27 -20 -41 -19 -19 3 -23 -2 -23 -22 0 -18 -6 -26 -23 -28 -26 -4
-40 21 -23 42 9 10 6 17 -12 28 -14 10 -29 38 -41 77 -18 61 -18 63 2 122 21
62 20 94 -5 103 -24 9 -31 -1 -43 -60 -7 -31 -18 -72 -27 -91 -9 -23 -16 -89
-20 -192 -6 -157 -6 -158 21 -203 14 -24 26 -53 26 -62 0 -37 25 -7 30 35 4
37 9 45 29 47 33 5 41 -12 40 -88 -1 -87 35 -280 70 -376 45 -123 66 -164 115
-233 25 -36 46 -70 46 -77 0 -22 -78 -107 -156 -170 -51 -41 -108 -76 -173
-104 -53 -23 -114 -50 -136 -60 -22 -9 -62 -23 -90 -30 -27 -7 -54 -16 -60
-20 -5 -4 -26 -11 -45 -14 -19 -4 -70 -19 -112 -34 l-78 -27 0 -267 0 -268
613 2 c336 1 544 4 461 5 l-152 4 -5 37 c-4 20 -5 65 -2 100 3 62 -16 271 -34
367 -15 77 -24 285 -14 330 12 54 42 59 74 13 63 -89 126 -145 223 -200 55
-32 113 -58 128 -58 16 0 34 -9 45 -24 10 -12 32 -26 48 -29 17 -3 42 -9 57
-12 22 -6 40 1 89 35 82 56 170 74 216 44 16 -10 46 -30 66 -42 35 -22 37 -27
37 -75 0 -28 -4 -76 -10 -106 -5 -31 -14 -128 -20 -215 -7 -107 -14 -162 -23
-168 -6 -4 201 -8 461 -8 l472 0 0 309 0 309 -32 11 c-18 6 -95 26 -170 45
-76 20 -177 52 -225 72 -48 20 -115 46 -149 58 -81 30 -199 120 -268 207 l-57
70 49 102 c27 56 54 123 60 148 7 25 25 71 41 102 16 31 35 82 41 114 6 32 21
85 32 118 18 50 32 153 40 285 4 75 -16 258 -32 290 -9 19 -20 52 -24 72 -37
198 -151 379 -303 480 -130 87 -165 98 -341 108 -177 11 -163 11 -217 0z m499
-1014 c14 -51 9 -59 -31 -51 -21 4 -66 7 -100 6 -35 0 -63 2 -63 5 0 2 9 17
20 32 19 25 26 28 94 28 67 1 75 -1 80 -20z m-945 -25 c8 -14 7 -22 -4 -31
-13 -11 -15 -8 -15 19 0 36 5 39 19 12z m923 -109 c17 -14 17 -16 0 -28 -26
-20 0 -39 48 -35 121 8 152 -47 112 -199 -9 -36 -27 -78 -38 -93 -22 -27 -57
-36 -69 -17 -3 5 -16 15 -27 21 -19 10 -20 9 -15 -10 3 -11 1 -21 -3 -21 -12
0 -50 50 -50 67 0 18 -42 83 -69 107 -12 11 -24 36 -27 57 -4 21 -15 46 -25
55 -20 18 -26 54 -9 54 6 0 13 -7 16 -15 4 -8 12 -15 20 -15 18 0 19 56 2 66
-20 13 43 34 82 27 19 -3 43 -12 52 -21z m-167 -233 c4 -5 4 -21 1 -35 -5 -19
-13 -24 -36 -24 -35 0 -37 8 -9 44 22 28 34 32 44 15z m285 -271 c0 -23 -89
-212 -96 -205 -3 2 10 37 27 78 17 41 36 91 42 112 12 41 27 49 27 15z m-932
-122 c38 -53 42 -79 7 -46 -32 31 -71 89 -80 120 l-6 25 23 -27 c13 -15 38
-47 56 -72z m77 -127 c10 -31 0 -33 -19 -4 -14 21 -14 25 -2 25 8 0 18 -9 21
-21z" id="node1" class="node" stroke-width="20"></path>
<path d="M1495 440 c-22 -3 -50 -11 -62 -18 -29 -16 -58 -15 -73 3 -18 22 -50
18 -92 -10 -20 -14 -42 -25 -48 -25 -16 0 -94 -41 -102 -54 -4 -6 21 -39 56
-76 89 -93 120 -142 112 -181 -3 -17 -3 -42 0 -55 6 -22 12 -24 59 -24 45 0
55 3 60 20 11 35 52 24 46 -12 0 -5 63 -7 141 -6 127 2 131 3 41 5 l-103 4 0
45 c0 49 17 88 78 180 22 32 49 78 60 101 20 38 20 43 6 57 -8 9 -27 19 -42
22 -15 4 -31 10 -37 14 -18 13 -59 17 -100 10z m-235 -119 c0 -5 -7 -11 -15
-15 -9 -3 -15 0 -15 9 0 8 7 15 15 15 8 0 15 -4 15 -9z m85 -31 c0 -18 -25
-24 -45 -10 -13 9 -13 11 0 20 20 14 45 8 45 -10z m68 -36 c11 -11 -3 -24 -18
-18 -8 4 -12 10 -9 15 6 11 18 12 27 3z m-53 -54 c13 -9 13 -11 0 -20 -22 -14
-50 -12 -50 3 0 27 23 35 50 17z m64 -55 c-4 -8 -10 -15 -15 -15 -5 0 -9 7 -9
15 0 8 7 15 15 15 9 0 12 -6 9 -15z m-48 -60 c8 -20 -13 -45 -32 -38 -14 5
-19 34 -7 46 11 12 33 7 39 -8z" id="node2" class="node"></path>
</g>
<g transform="translate(0.000000,300.000000) scale(0.100000,-0.100000)" fill="#FFFFFF" stroke="none">









<path d="M1230 315 c0 -9 6 -12 15 -9 8 4 15 10 15 15 0 5 -7 9 -15 9 -8 0
-15 -7 -15 -15z" id="node12" class="node"></path>
<path d="M1300 300 c-13 -9 -13 -11 0 -20 20 -14 45 -8 45 10 0 18 -25 24 -45
10z" id="node13" class="node"></path>
<path d="M1386 251 c-3 -5 1 -11 9 -15 15 -6 29 7 18 18 -9 9 -21 8 -27 -3z" id="node14" class="node"></path>
<path d="M1317 203 c-25 -25 11 -44 43 -23 13 9 13 11 0 20 -18 11 -34 13 -43
3z" id="node15" class="node"></path>
<path d="M1400 145 c0 -8 4 -15 9 -15 5 0 11 7 15 15 3 9 0 15 -9 15 -8 0 -15
-7 -15 -15z" id="node16" class="node"></path>
<path d="M1337 93 c-12 -12 -7 -41 7 -46 19 -7 40 18 32 38 -6 15 -28 20 -39
8z" id="node17" class="node"></path>
<path d="M1406 24 c-9 -23 -8 -23 19 -20 14 2 25 6 25 9 0 4 0 12 0 17 0 16
-37 11 -44 -6z" id="node18" class="node"></path>
</g>
</svg>