<?xml version="1.0" standalone="no"?>
<!DOCTYPE svg PUBLIC "-//W3C//DTD SVG 20010904//EN"
 "http://www.w3.org/TR/2001/REC-SVG-20010904/DTD/svg10.dtd">
<svg version="1.0" xmlns="http://www.w3.org/2000/svg"
 width="1152.000000pt" height="1280.000000pt" viewBox="0 0 1152.000000 1280.000000"
 preserveAspectRatio="xMidYMid meet">
<metadata>
Created by potrace 1.15, written by Peter Selinger 2001-2017
</metadata>
<g transform="translate(0.000000,1280.000000) scale(0.100000,-0.100000)"
fill="#000000" stroke="none">
<path d="M4358 12764 c-45 -34 -219 -256 -301 -385 -49 -77 -111 -203 -132
-269 -10 -30 -21 -57 -26 -60 -24 -16 -129 -414 -129 -489 0 -29 -5 -51 -12
-53 -9 -3 -12 -64 -12 -229 -1 -261 17 -380 85 -583 105 -317 295 -584 701
-988 260 -259 256 -254 242 -328 -7 -32 -7 -32 -55 -28 -27 3 -49 2 -49 -2 0
-19 47 -63 91 -86 28 -14 52 -31 56 -39 3 -10 20 -15 52 -15 38 0 52 -5 69
-25 27 -31 42 -25 42 18 0 50 28 153 60 227 17 38 30 78 30 91 0 21 -1 22 -20
4 -23 -21 -26 -15 -33 61 -3 41 -13 64 -49 115 -82 116 -96 161 -58 199 11 11
20 26 20 33 0 43 -178 324 -356 562 -66 88 -108 170 -108 212 0 18 2 35 6 38
3 3 34 -1 69 -10 71 -16 186 -20 208 -6 12 8 12 14 1 41 -20 48 -187 158 -320
210 -30 12 -58 25 -62 28 -11 11 -45 266 -58 427 -15 204 -13 579 5 714 17
130 22 153 75 316 21 66 43 154 49 195 6 41 13 90 17 108 6 30 5 32 -22 32
-17 0 -48 -15 -76 -36z"/>
<path d="M6066 12730 c31 -39 127 -130 213 -203 186 -158 225 -195 251 -247
41 -80 37 -83 -165 -123 -231 -46 -394 -141 -632 -368 -161 -155 -161 -154
-223 -254 -53 -85 -129 -177 -141 -169 -16 10 -9 -36 13 -88 l21 -50 56 6
c124 14 276 122 401 286 72 95 151 168 257 237 233 152 454 212 796 215 l172
2 98 -36 c155 -57 234 -112 289 -197 38 -60 36 -83 -11 -130 -51 -51 -125 -84
-248 -111 -98 -21 -121 -21 -525 -18 -415 3 -424 2 -481 -19 -99 -38 -154 -86
-248 -218 -51 -70 -57 -85 -84 -187 -22 -84 -22 -94 -9 -144 18 -69 42 -115
99 -185 38 -46 47 -67 56 -120 6 -35 7 -80 4 -99 -4 -19 3 -106 16 -197 19
-134 21 -171 12 -206 -10 -33 -9 -45 2 -56 18 -18 99 -32 146 -25 23 4 66 -1
110 -11 61 -15 82 -16 134 -6 76 14 140 14 165 1 13 -7 31 -2 71 20 71 39 115
39 164 0 57 -45 68 -41 60 25 -8 63 -4 66 79 41 l46 -14 15 29 c15 27 19 29
80 29 l65 0 0 49 0 50 55 6 c30 4 70 4 87 1 81 -15 118 -18 118 -9 0 6 -19 32
-42 58 l-43 48 33 -6 32 -7 -15 30 c-27 52 -21 60 35 53 58 -7 62 1 24 46
l-25 31 52 56 c61 64 148 109 324 170 91 31 128 38 213 42 56 2 102 8 102 11
0 14 -214 104 -353 151 -86 28 -130 66 -153 131 -11 30 -33 63 -52 80 l-33 30
-57 -52 c-97 -89 -142 -107 -175 -71 -28 31 -39 75 -39 164 -1 78 2 94 30 150
18 37 71 108 128 172 70 80 107 132 136 193 23 45 46 83 52 84 6 0 124 2 261
2 l250 2 180 52 c230 66 249 68 327 48 158 -40 253 -144 314 -347 35 -114 37
-310 5 -407 -11 -35 -21 -75 -21 -88 l0 -24 43 26 c23 14 61 36 84 47 l42 21
19 -23 c18 -22 21 -23 52 -10 42 17 90 58 90 76 0 8 -10 14 -25 14 -24 0 -25
2 -25 63 0 55 -3 67 -25 87 -14 13 -28 38 -31 57 -7 39 -16 40 -72 8 -30 -17
-44 -21 -46 -12 -2 7 -15 59 -29 118 -29 126 -59 191 -129 284 -48 63 -177
179 -268 240 l-35 24 -130 -29 c-116 -26 -149 -30 -298 -30 -143 0 -191 4
-330 30 -257 47 -338 71 -625 184 -421 165 -738 318 -902 436 -36 25 -88 61
-116 78 -28 18 -59 41 -69 52 -13 14 -31 20 -62 20 l-44 0 57 -70z"/>
<path d="M9301 11162 c-30 -59 -92 -120 -214 -212 -51 -38 -85 -76 -75 -85 8
-7 346 13 369 23 54 22 52 -8 -8 -117 -33 -59 -76 -115 -136 -177 l-88 -92 36
-12 c20 -7 48 -9 63 -5 74 18 209 140 255 231 45 88 82 313 61 368 -10 25 -23
19 -74 -32 -54 -55 -112 -86 -200 -106 -60 -14 -100 -12 -100 6 0 5 36 44 79
86 63 61 81 85 87 114 7 41 1 68 -16 68 -5 0 -23 -26 -39 -58z"/>
<path d="M575 10793 c-164 -206 -325 -514 -325 -621 0 -28 3 -33 18 -29 9 2
90 59 178 126 89 66 163 121 166 121 2 0 -11 -57 -28 -127 -39 -156 -61 -281
-76 -433 l-11 -116 -164 -123 c-90 -68 -165 -122 -167 -120 -2 2 0 29 5 59 9
67 10 176 0 210 -20 71 -88 -10 -117 -137 -19 -88 -16 -196 8 -219 21 -21 34
-14 168 91 163 127 253 195 259 195 3 0 4 -35 3 -77 -4 -77 15 -414 24 -438 4
-10 -161 -146 -303 -248 l-53 -38 0 51 c0 71 -18 135 -47 166 -22 24 -26 25
-46 12 -79 -51 -89 -246 -15 -301 26 -20 27 -20 60 0 18 11 129 94 246 185
117 92 222 172 234 180 21 14 21 15 8 154 -35 361 -4 747 86 1083 14 51 23 95
21 98 -3 2 -51 -32 -108 -75 -124 -94 -251 -183 -256 -178 -10 10 187 438 256
554 17 29 28 52 26 52 -3 0 -25 -26 -50 -57z m68 -403 c-3 -12 -8 -19 -11 -16
-5 6 5 36 12 36 2 0 2 -9 -1 -20z m-27 -96 c-27 -107 -57 -277 -72 -413 -8
-74 -17 -137 -19 -140 -11 -10 7 170 31 314 19 112 64 308 71 302 2 -3 -3 -31
-11 -63z m-72 -1074 c4 -46 4 -58 -3 -43 -16 36 -35 399 -25 468 7 50 10 26
15 -150 3 -115 9 -239 13 -275z"/>
<path d="M10176 10768 c-3 -13 -6 -74 -6 -137 0 -112 -1 -115 -37 -181 -20
-38 -41 -66 -48 -64 -6 3 -17 25 -23 51 l-13 46 -42 -41 c-24 -23 -47 -38 -53
-34 -6 4 -13 35 -16 69 -2 35 -7 65 -10 68 -8 8 -78 -56 -94 -87 -8 -15 -14
-37 -14 -50 0 -13 -11 -47 -25 -76 -25 -55 -33 -122 -15 -122 19 0 84 37 130
73 43 35 44 35 58 16 8 -12 12 -38 11 -67 -5 -76 21 -64 119 53 46 55 86 99
90 98 4 -1 10 -21 14 -45 4 -23 12 -54 17 -68 5 -14 12 -33 15 -44 6 -18 7
-18 26 -1 38 34 52 114 48 263 -3 129 -5 140 -32 189 -15 28 -43 65 -61 83
l-32 31 -7 -23z"/>
<path d="M9615 10427 c-48 -25 -67 -43 -93 -87 -30 -51 -31 -55 -13 -58 28 -5
90 37 144 98 76 84 62 101 -38 47z"/>
<path d="M10660 10395 c-24 -25 -48 -45 -53 -45 -5 0 -6 18 -2 40 9 55 -8 53
-81 -13 -100 -89 -176 -147 -226 -173 -26 -13 -52 -33 -58 -43 -11 -21 -14
-121 -4 -121 3 0 29 21 57 46 28 25 63 52 78 60 26 13 29 12 50 -17 l22 -31
58 58 c44 44 62 55 70 47 16 -16 -20 -159 -68 -273 -58 -135 -109 -204 -205
-275 -33 -23 -21 -35 37 -34 80 1 105 17 163 109 119 189 174 333 206 535 18
111 20 161 8 169 -5 3 -28 -15 -52 -39z"/>
<path d="M8923 10400 c-24 -10 -22 -34 3 -44 8 -3 64 -11 125 -17 89 -10 133
-10 218 0 115 15 131 18 131 32 0 5 -60 9 -132 9 -85 0 -153 6 -188 15 -61 16
-124 18 -157 5z"/>
<path d="M11279 9987 c-19 -13 -83 -65 -144 -115 -125 -105 -127 -104 -105 21
7 38 9 71 6 74 -3 4 -55 -43 -115 -104 -115 -116 -123 -122 -273 -169 -32 -10
-58 -20 -58 -24 0 -3 19 -10 43 -16 34 -7 45 -16 60 -46 10 -20 20 -58 23 -85
l6 -48 -94 -86 c-152 -140 -234 -278 -293 -491 -22 -82 -25 -113 -25 -252 0
-111 5 -180 16 -225 25 -103 103 -255 178 -345 50 -60 66 -86 66 -110 0 -50
-124 -341 -197 -461 -36 -60 -98 -153 -136 -205 -93 -125 -322 -353 -472 -469
-112 -86 -466 -324 -952 -641 -114 -74 -278 -188 -365 -252 -127 -96 -168
-132 -215 -194 -32 -42 -100 -127 -151 -188 -358 -426 -427 -484 -625 -524
-88 -18 -118 -38 -90 -59 23 -18 51 -16 194 8 141 24 311 88 438 165 355 216
683 383 779 398 105 16 338 -79 486 -198 23 -18 62 -45 87 -60 71 -41 228
-176 327 -282 76 -82 100 -116 151 -218 33 -66 74 -162 90 -211 56 -173 117
-486 131 -665 4 -58 13 -132 20 -165 14 -74 8 -595 -9 -735 -22 -186 -94 -498
-159 -690 -43 -126 -87 -233 -195 -470 -134 -296 -243 -641 -291 -920 -52
-301 -56 -328 -56 -386 0 -33 -7 -94 -15 -137 -9 -50 -15 -138 -15 -238 0
-157 10 -200 28 -121 56 240 130 477 203 646 75 173 185 407 224 476 23 41 62
113 85 160 46 92 324 562 400 675 26 39 98 156 160 260 129 217 213 347 319
490 115 154 341 489 405 597 64 110 129 250 176 383 41 118 108 410 120 531 6
53 13 100 16 105 25 41 46 1345 24 1579 -6 69 -12 173 -14 231 -2 80 -7 114
-19 133 -9 14 -68 55 -129 92 -62 36 -135 85 -163 108 -27 23 -88 72 -135 108
-85 66 -178 154 -169 161 2 2 39 21 81 41 68 32 83 44 124 101 58 82 121 203
130 250 9 52 -8 64 -102 74 -44 4 -89 14 -101 21 -21 13 -20 15 35 76 72 81
80 101 46 114 -14 6 -34 10 -45 10 -83 0 -189 69 -189 123 0 21 10 32 48 53
26 15 79 48 118 74 69 46 74 47 165 53 109 6 230 41 302 87 l48 30 -3 107 -3
107 -38 22 c-21 11 -70 27 -110 33 -95 17 -177 38 -243 62 l-54 20 39 47 c22
26 53 71 71 101 17 30 51 80 75 111 23 30 93 157 154 281 l111 224 0 427 0
426 -92 -39 c-114 -47 -120 -48 -108 -11 8 23 30 166 30 193 0 17 -37 9 -71
-14z m-589 -1160 c0 -202 -14 -240 -40 -112 -13 61 -9 144 11 237 19 86 29 41
29 -125z"/>
<path d="M505 8490 c-126 -126 -233 -230 -237 -230 -5 0 -8 10 -8 21 0 73 -64
169 -112 169 -46 0 -90 -68 -90 -140 0 -96 66 -182 125 -164 12 3 93 76 179
162 87 86 161 152 165 148 5 -4 8 -36 7 -71 -1 -116 -79 -234 -167 -255 l-32
-8 30 -1 c78 -3 159 46 198 118 15 26 42 107 61 179 41 153 54 186 95 246 32
47 36 56 23 56 -4 0 -111 -103 -237 -230z m66 -167 c-6 -21 -17 -47 -25 -58
-11 -15 -10 -4 4 43 11 35 21 83 22 105 l2 42 3 -47 c2 -26 -1 -64 -6 -85z"/>
<path d="M6315 8603 c-14 -119 -106 -227 -224 -263 -79 -25 -100 -25 -181 1
-83 26 -431 40 -494 19 -97 -32 -141 -121 -76 -155 34 -17 271 -22 314 -5 14
5 43 25 65 45 l40 36 196 5 c220 5 226 6 325 80 54 41 68 57 82 99 19 56 23
147 8 176 -6 10 -19 19 -29 19 -15 0 -20 -11 -26 -57z"/>
<path d="M1229 8095 c-68 -25 -104 -48 -166 -108 l-63 -60 -77 31 c-137 53
-257 66 -328 33 -82 -37 -168 -153 -210 -279 -26 -81 -18 -228 17 -304 l26
-57 -44 -41 c-107 -99 -190 -125 -249 -78 -26 20 -61 85 -52 95 3 2 23 -5 45
-17 34 -18 43 -19 66 -8 52 23 71 102 42 173 -39 92 -131 76 -172 -31 -31 -82
-3 -191 63 -241 68 -52 147 -30 263 75 l54 49 43 -30 c112 -79 278 -28 347
107 37 71 39 151 7 241 l-21 59 53 54 54 54 74 -23 c106 -33 207 -32 275 3 59
31 157 132 187 194 l21 44 -24 25 c-45 48 -158 67 -231 40z m137 -86 c25 -7
48 -18 51 -26 7 -19 -42 -70 -92 -95 -30 -16 -58 -21 -110 -21 -69 1 -165 27
-172 48 -4 14 87 74 138 90 55 17 126 18 185 4z m-548 -155 c39 -16 72 -32 72
-37 0 -5 -14 -22 -32 -39 -35 -32 -37 -32 -132 2 -76 27 -119 21 -162 -26 -37
-38 -74 -129 -74 -177 1 -31 2 -30 28 23 15 30 39 63 55 74 37 27 92 25 123
-5 l25 -23 -128 -128 c-95 -95 -130 -125 -139 -117 -22 18 -46 109 -46 172 1
134 85 260 199 303 52 19 124 12 211 -22z m-58 -333 c0 -86 -69 -179 -152
-201 -39 -11 -79 -1 -111 28 -17 15 -11 23 110 144 l128 129 12 -28 c7 -16 12
-48 13 -72z"/>
<path d="M5843 7741 c-56 -14 -120 -59 -157 -110 -20 -27 -43 -51 -51 -55 -8
-3 -44 -3 -79 1 -81 7 -110 -8 -127 -69 -19 -74 4 -148 78 -250 37 -51 126
-115 241 -172 39 -20 96 -51 125 -70 28 -18 79 -47 112 -64 67 -34 103 -68
134 -127 38 -71 30 -98 -49 -181 -74 -78 -76 -84 -71 -179 5 -88 85 -201 173
-246 49 -25 189 -43 293 -37 65 4 101 13 189 49 106 42 110 45 172 119 93 110
149 226 236 485 33 101 87 230 147 355 46 95 52 144 21 182 -19 25 -36 33
-115 57 -22 7 -62 23 -90 36 -72 33 -465 155 -715 221 -187 49 -229 57 -325
60 -60 2 -124 -1 -142 -5z"/>
<path d="M1491 7379 c-25 -11 -67 -40 -93 -65 -33 -31 -54 -44 -65 -39 -41 15
-163 27 -214 21 -98 -12 -173 -79 -205 -181 -21 -65 -13 -129 22 -180 30 -45
30 -46 -3 -77 -77 -72 -154 -88 -200 -42 -30 30 -25 40 15 26 45 -16 76 4 80
51 4 50 -35 92 -76 82 -118 -29 -73 -205 53 -205 43 0 91 25 146 77 27 24 27
24 75 8 155 -53 303 89 234 224 l-22 43 37 38 36 37 61 -10 c86 -13 157 -2
211 33 45 28 116 113 117 137 1 42 -135 56 -209 22z m167 -43 c9 -10 -41 -58
-75 -72 -51 -22 -193 -16 -193 7 0 13 47 41 104 61 48 17 148 19 164 4z m-418
-125 c40 -8 42 -19 9 -44 -20 -14 -30 -15 -59 -7 -19 5 -51 10 -71 10 -63 0
-119 -63 -119 -132 l1 -33 13 31 c26 60 90 90 129 61 16 -11 9 -21 -67 -96
-53 -53 -88 -81 -96 -76 -16 10 -50 84 -50 110 0 37 47 122 81 146 18 12 53
29 78 35 43 12 68 11 151 -5z m-44 -177 c14 -32 13 -39 -3 -72 -23 -47 -75
-82 -122 -82 -75 0 -73 13 19 105 46 47 86 85 88 85 2 0 10 -16 18 -36z"/>
<path d="M1805 6759 c-116 -116 -223 -220 -238 -231 l-28 -20 -27 25 c-15 14
-52 38 -82 53 -44 22 -69 28 -128 28 -69 1 -75 -1 -98 -27 -36 -43 -31 -73 21
-123 72 -69 180 -92 260 -55 43 20 555 527 555 549 0 31 -40 -3 -235 -199z
m-460 -214 c68 -18 125 -50 125 -71 0 -34 -177 1 -210 41 -14 17 -6 45 13 45
7 0 39 -7 72 -15z"/>
<path d="M2214 6561 c-80 -82 -174 -175 -210 -206 l-64 -57 -52 26 c-113 57
-268 17 -256 -66 2 -12 17 -32 35 -44 64 -43 166 -41 231 5 61 43 497 491 478
491 -10 0 -83 -67 -162 -149z"/>
<path d="M5245 6643 c-145 -75 -296 -116 -281 -78 14 38 -31 0 -222 -187 -155
-152 -217 -206 -247 -217 -162 -55 -394 -157 -438 -191 -123 -97 177 -5 395
120 54 32 117 86 238 205 125 123 175 166 205 175 22 7 91 35 154 62 63 27
118 47 124 45 5 -1 -28 -31 -72 -66 -82 -64 -113 -97 -43 -46 60 46 262 208
262 212 0 5 1 5 -75 -34z"/>
<path d="M2739 6428 c-133 -119 -334 -296 -360 -316 -12 -9 -27 -7 -75 9 -47
17 -74 20 -135 16 -79 -5 -108 -15 -146 -50 -34 -30 -30 -63 9 -83 48 -25 153
-30 219 -11 61 18 81 34 352 279 l185 168 154 -39 c84 -22 190 -45 236 -52 45
-7 82 -16 82 -20 0 -5 -149 -140 -367 -332 -19 -17 -27 -18 -97 -7 -132 20
-292 -18 -318 -75 -9 -21 -9 -29 5 -42 22 -23 117 -33 191 -22 112 18 144 41
441 308 154 138 282 256 283 261 2 6 -8 10 -21 10 -41 0 -273 48 -387 80 -58
17 -111 30 -117 30 -6 0 -66 -50 -134 -112z m203 17 c51 -14 151 -36 223 -50
71 -14 132 -28 135 -32 6 -7 -99 5 -160 18 -122 27 -297 72 -310 80 -29 16 15
10 112 -16z"/>
<path d="M3693 6159 c-193 -195 -231 -229 -250 -224 -34 8 -180 -11 -254 -34
-106 -33 -167 -87 -127 -112 22 -14 137 -10 207 7 129 32 163 55 324 221 l150
153 49 0 c122 0 118 -68 -9 -151 -69 -46 -23 -26 69 28 96 57 148 104 148 132
0 11 -20 43 -45 71 -49 55 -51 63 -30 100 17 30 18 40 5 40 -5 0 -112 -104
-237 -231z m238 33 c16 -14 20 -24 15 -38 -8 -18 -9 -18 -17 4 -5 13 -23 29
-41 37 -32 14 -32 14 -7 15 15 0 37 -8 50 -18z"/>
</g>
</svg>
