<!--?xml version="1.0" standalone="no"?--><svg version="1.0" xmlns="http://www.w3.org/2000/svg" width="226.000000pt" height="300.000000pt" viewBox="0 0 226.000000 300.000000" preserveAspectRatio="xMidYMid meet">
<metadata>
  <rdf:rdf xmlns:rdf="http://www.w3.org/1999/02/22-rdf-syntax-ns#" xmlns:rdfs="http://www.w3.org/2000/01/rdf-schema#" xmlns:dc="http://purl.org/dc/elements/1.1/">
    <rdf:description dc:title="jimi hendrix stencil" dc:publisher="Hiox" dc:date="2015-05-07" dc:format="image/svg+xml" dc:language="en">
      <dc:creator>
        <rdf:bag>
          <rdf:li>svgimages.com</rdf:li>
        </rdf:bag>
      </dc:creator>
    </rdf:description>
  </rdf:rdf>
</metadata>
<g transform="translate(0.000000,300.000000) scale(0.100000,-0.100000)" fill="#050505" stroke="none">
<path d="M1350 2668 c-14 -5 -36 -7 -49 -5 -14 3 -35 0 -48 -6 -16 -7 -26 -7
-37 2 -11 10 -24 9 -58 -3 -32 -10 -61 -12 -108 -7 -62 8 -68 6 -130 -26 -37
-20 -72 -32 -84 -29 -10 3 -32 -2 -49 -10 -16 -9 -52 -17 -80 -18 -41 -2 -54
-8 -72 -29 -11 -15 -25 -27 -31 -27 -5 0 -15 -13 -21 -30 -6 -16 -20 -33 -30
-36 -10 -4 -27 -17 -38 -29 -25 -27 -54 -38 -69 -27 -23 18 -45 22 -39 6 3 -8
-1 -14 -9 -14 -9 0 -14 -15 -16 -47 -1 -27 -6 -49 -11 -51 -6 -2 -8 -9 -6 -15
3 -7 -7 -20 -20 -30 -22 -16 -26 -16 -31 -2 -4 8 -4 25 -1 38 6 21 6 21 -8 3
-8 -11 -15 -26 -15 -33 0 -7 -7 -13 -15 -13 -8 0 -19 -9 -25 -20 -9 -16 -7
-24 5 -36 8 -8 15 -19 15 -23 0 -9 -51 -35 -63 -32 -5 1 -7 -18 -6 -41 6 -78
-29 -121 -41 -52 -6 29 -6 28 -24 -18 -10 -25 -15 -55 -12 -66 5 -15 1 -24
-12 -31 -16 -8 -42 -57 -42 -78 0 -2 13 5 30 17 36 25 50 19 50 -22 0 -21 -6
-31 -20 -35 -16 -4 -18 -9 -9 -25 9 -16 7 -20 -10 -25 -13 -3 -21 -13 -21 -27
0 -12 -7 -32 -16 -44 -9 -13 -14 -33 -11 -44 4 -12 1 -30 -4 -41 -6 -10 -8
-30 -4 -44 6 -24 7 -25 20 -7 14 18 14 18 15 -4 0 -13 5 -33 11 -44 9 -18 9
-20 -4 -15 -9 3 -18 -1 -21 -10 -5 -12 -9 -13 -21 -3 -22 18 -18 5 10 -40 14
-22 25 -46 25 -53 0 -18 21 -37 39 -37 17 0 77 -68 68 -76 -3 -3 6 -17 19 -31
27 -29 30 -42 12 -44 -7 -1 1 -4 17 -8 24 -5 30 -12 31 -33 1 -16 12 -36 29
-51 33 -28 27 -47 -16 -47 -37 0 -30 -16 11 -25 16 -3 32 -14 35 -23 3 -9 19
-25 36 -34 16 -10 27 -22 24 -28 -9 -15 8 -12 31 5 28 21 65 19 71 -4 4 -15
12 -18 34 -16 20 3 36 -2 49 -15 24 -24 25 -30 5 -30 -20 0 -19 -10 2 -26 15
-10 16 -15 5 -26 -11 -11 -17 -9 -33 11 -25 30 -30 24 -59 -68 -22 -70 -26
-121 -9 -121 7 0 8 -14 4 -40 -4 -24 -3 -40 3 -40 12 0 22 49 22 109 0 25 3
56 6 68 7 27 32 30 41 5 3 -9 19 -45 34 -80 28 -60 37 -111 23 -125 -9 -8 -10
-135 -2 -143 11 -10 28 6 28 27 0 11 7 19 17 19 13 0 14 3 5 12 -20 20 -15 40
10 33 18 -6 20 -4 14 11 -15 37 -19 94 -7 94 8 0 10 8 6 19 -3 11 1 45 10 76
25 85 24 326 -1 425 -26 98 -22 113 22 108 30 -4 33 -2 28 17 -6 20 -21 40
-56 77 -26 26 -31 61 -19 118 6 28 11 78 11 111 0 96 25 165 81 224 27 29 49
59 49 68 0 23 15 29 77 33 36 2 66 -2 85 -12 34 -17 107 -12 164 12 58 24 98
18 139 -21 21 -19 44 -37 54 -40 18 -5 45 -44 37 -52 -3 -3 -25 0 -49 7 -54
14 -100 4 -151 -35 -42 -32 -44 -53 -11 -115 18 -34 24 -40 25 -23 0 23 42 92
63 105 7 4 31 8 55 8 69 0 110 -31 57 -44 -14 -4 -25 -12 -25 -20 0 -8 -16
-16 -41 -19 -23 -3 -51 -14 -61 -25 -19 -19 -19 -19 9 -20 77 -3 112 -15 79
-28 -25 -10 -19 -21 15 -28 17 -3 46 -19 64 -35 18 -16 39 -31 46 -33 10 -3 9
-14 -4 -50 -19 -50 -41 -74 -72 -80 -11 -2 -22 -14 -25 -28 -7 -31 -33 -37
-67 -14 -27 17 -27 17 -5 25 27 10 27 19 3 50 -10 14 -21 36 -23 49 -2 20 -8
24 -29 22 -15 -1 -33 5 -43 17 -17 18 -18 18 -56 0 -21 -11 -52 -19 -67 -20
-32 -1 -60 -9 -87 -25 -18 -11 -18 -12 0 -43 20 -35 30 -37 58 -16 26 19 99
19 136 0 37 -19 39 -29 5 -23 -41 8 -28 -9 20 -28 78 -29 56 -43 -82 -48 -58
-2 -100 -9 -122 -20 -35 -19 -45 -17 -36 6 6 15 106 68 130 68 8 0 15 5 15 10
0 18 -37 10 -96 -21 -75 -40 -89 -52 -114 -103 -35 -73 -26 -80 49 -44 39 19
63 22 160 23 67 0 116 -4 118 -10 5 -17 -58 -52 -117 -65 -30 -7 -59 -16 -65
-20 -5 -4 -26 -10 -45 -12 -19 -3 -43 -8 -52 -12 -11 -5 -24 0 -38 14 -12 12
-23 20 -25 18 -7 -8 -12 -99 -5 -103 4 -2 34 3 66 11 85 23 159 22 192 -3 62
-46 25 -85 -86 -88 -34 -1 -65 -5 -69 -9 -14 -14 -49 -4 -99 29 -29 19 -57 35
-62 35 -10 0 -22 -56 -22 -105 0 -24 13 -42 65 -92 36 -34 65 -64 65 -67 0 -2
-11 -6 -26 -8 l-25 -3 24 -33 c14 -18 23 -41 20 -52 -3 -12 2 -20 16 -25 28
-9 26 -29 -4 -52 l-25 -18 43 -61 c23 -33 60 -100 82 -147 l39 -87 227 0 228
0 20 55 c12 31 21 59 21 62 0 4 7 14 16 24 15 17 15 21 0 59 -19 49 -20 72 -3
88 6 7 12 31 13 52 0 55 11 60 43 23 21 -25 102 -236 101 -265 0 -4 5 -19 10
-34 10 -26 11 -27 24 -8 8 11 38 73 66 137 l53 118 -22 22 c-31 33 -26 45 21
54 l42 8 -70 45 c-38 25 -107 72 -154 106 -76 55 -89 61 -122 57 -42 -6 -46 3
-28 52 6 17 16 25 24 22 9 -4 19 5 26 24 15 36 27 37 42 4 l12 -26 19 31 c20
31 42 39 50 18 3 -7 11 2 18 19 10 25 18 32 31 27 10 -3 18 -1 18 5 0 8 19 9
57 5 43 -6 54 -4 49 5 -5 7 0 18 10 26 11 9 14 14 7 15 -24 0 -13 16 21 30 19
7 34 18 33 24 -1 5 7 11 18 13 42 8 51 13 36 22 -11 7 -10 14 4 39 15 24 24
30 52 29 18 -1 39 5 46 12 10 11 9 13 -6 8 -15 -6 -17 -3 -12 13 4 11 2 20 -4
20 -6 0 -11 7 -11 15 0 8 6 15 14 15 9 0 12 7 9 20 -3 12 0 20 7 20 9 0 7 8
-5 26 -11 18 -13 29 -6 38 6 6 8 22 4 34 -3 14 0 24 10 28 12 4 15 14 10 36
-5 23 -2 34 12 45 11 7 14 13 7 13 -13 0 -5 99 9 114 4 5 4 17 -2 27 -6 12 -6
25 0 36 5 10 12 26 15 36 3 9 15 17 27 17 17 0 19 3 10 14 -8 9 -10 28 -5 50
4 24 2 36 -5 36 -6 0 -11 -8 -11 -18 0 -11 -8 -18 -20 -19 -22 -2 -26 17 -8
35 9 9 8 15 -8 27 -15 12 -16 16 -5 24 11 7 8 12 -12 25 -13 9 -31 15 -38 14
-8 -2 -14 7 -15 20 -2 26 12 28 38 5 28 -25 21 -1 -13 47 -27 38 -30 48 -25
89 5 30 4 41 -2 32 -16 -22 -32 -3 -31 37 1 52 -11 104 -28 124 -10 11 -13 26
-9 42 5 20 3 24 -10 19 -9 -3 -21 3 -31 17 -10 14 -19 18 -25 12 -16 -16 -42
-3 -60 29 -10 16 -32 37 -50 47 -17 9 -42 26 -54 38 -12 12 -41 29 -65 38 -24
10 -52 24 -61 33 -9 8 -21 12 -27 9 -6 -4 -24 0 -40 9 -16 8 -36 12 -43 10
-19 -7 -98 51 -98 72 0 15 -1 15 -18 0 -23 -21 -49 -22 -54 -3 -2 10 -9 11
-28 4z" id="node1" class="node"></path>
<path d="M764 1724 c-19 -18 -34 -37 -34 -43 0 -14 0 -14 43 4 41 17 114 20
151 5 31 -11 34 -30 6 -37 -19 -5 -20 -6 -3 -19 16 -12 14 -13 -20 -14 -55 0
-147 -44 -147 -69 0 -10 140 4 188 19 23 7 42 19 42 26 0 7 6 17 13 21 14 9
77 89 77 97 0 3 -8 6 -17 6 -9 0 -24 6 -32 14 -11 10 -49 15 -124 18 l-109 3
-34 -31z" id="node2" class="node"></path>
<path d="M1190 1522 c0 -11 9 -27 20 -37 22 -20 26 -9 8 30 -13 29 -28 33 -28
7z" id="node3" class="node"></path>
<path d="M363 688 c-74 -98 -75 -99 -67 -176 l6 -70 79 29 c44 16 82 29 84 29
13 0 2 -20 -31 -59 -21 -24 -33 -46 -28 -51 5 -5 45 -22 89 -39 44 -16 113
-43 154 -60 41 -17 76 -30 78 -27 2 2 -46 50 -108 107 -116 109 -143 146 -179
242 -21 56 -22 69 -5 110 5 13 2 17 -13 17 -12 0 -35 -20 -59 -52z" id="node4" class="node"></path>
</g>
<g transform="translate(0.000000,300.000000) scale(0.100000,-0.100000)" fill="#A0A0A0" stroke="none">

</g>
</svg>