<!--?xml version="1.0" standalone="no"?--><svg version="1.0" xmlns="http://www.w3.org/2000/svg" width="300.000000pt" height="296.000000pt" viewBox="0 0 300.000000 296.000000" preserveAspectRatio="xMidYMid meet">
<metadata>
  <rdf:rdf xmlns:rdf="http://www.w3.org/1999/02/22-rdf-syntax-ns#" xmlns:rdfs="http://www.w3.org/2000/01/rdf-schema#" xmlns:dc="http://purl.org/dc/elements/1.1/">
    <rdf:description dc:title="peter pan stencil" dc:publisher="Hiox" dc:date="2015-05-11" dc:format="image/svg+xml" dc:language="en">
      <dc:creator>
        <rdf:bag>
          <rdf:li>svgimages.com</rdf:li>
        </rdf:bag>
      </dc:creator>
    </rdf:description>
  </rdf:rdf>
</metadata>
<g transform="translate(0.000000,296.000000) scale(0.100000,-0.100000)" fill="#1D1D1E" stroke="none">
<path d="M1165 2801 c-84 -26 -128 -46 -225 -104 -107 -65 -242 -198 -286
-282 -27 -51 -93 -239 -145 -415 -17 -55 -18 -522 -1 -542 5 -7 13 -28 17 -46
8 -39 52 -92 99 -121 20 -13 50 -51 79 -103 65 -114 69 -119 89 -150 10 -15
23 -51 29 -80 6 -29 15 -57 19 -63 4 -5 18 -65 30 -132 30 -161 23 -261 -20
-300 -18 -15 -30 -37 -32 -57 l-3 -31 -145 -5 c-129 -5 -150 -8 -183 -28 -37
-24 -46 -43 -61 -134 -7 -37 -9 -39 -154 -111 -81 -40 -160 -78 -177 -84 -22
-8 340 -11 1413 -12 815 -1 1442 3 1442 8 0 14 -88 91 -116 102 -15 5 -61 12
-103 15 -121 9 -281 43 -334 72 -30 16 -73 56 -117 108 -93 110 -143 135 -279
142 l-98 5 -7 75 c-3 41 -6 136 -6 210 0 130 1 137 31 201 17 36 35 75 40 86
15 34 49 177 49 206 0 20 7 31 27 41 14 7 34 24 45 38 21 28 37 137 38 249 0
51 8 99 28 160 25 79 27 99 27 246 0 244 -43 400 -141 515 -24 28 -42 56 -38
61 3 5 -2 12 -10 15 -9 3 -16 11 -16 18 0 6 -10 22 -21 36 l-21 25 6 -27 c7
-33 -2 -35 -35 -9 -27 20 -133 76 -220 114 -81 36 -220 74 -329 92 -114 18
-110 18 -185 -4z m568 -371 c145 -68 217 -204 267 -499 11 -68 23 -197 27
-287 3 -90 10 -161 15 -158 4 3 18 23 29 46 11 22 22 38 24 36 9 -9 -15 -220
-27 -245 -7 -15 -24 -30 -38 -33 -15 -4 -27 -15 -31 -30 -4 -14 -17 -65 -28
-115 -40 -166 -125 -309 -267 -451 -92 -91 -219 -164 -287 -164 -114 0 -348
169 -491 355 -96 124 -114 158 -126 227 -13 82 -36 168 -48 180 -6 6 -17 5
-29 -3 -30 -18 -62 -5 -126 53 -70 63 -76 83 -77 262 0 132 9 156 60 156 24 0
30 -7 48 -52 11 -29 24 -64 28 -78 10 -38 24 -50 49 -44 21 5 24 1 30 -37 4
-23 15 -65 24 -92 l17 -50 10 29 c68 193 88 259 98 316 13 79 24 90 118 114
72 19 178 14 249 -10 51 -18 59 -14 33 15 -61 69 -212 91 -310 45 -29 -13 -54
-30 -58 -37 -3 -8 -3 2 0 21 8 49 44 107 121 197 36 43 77 95 90 116 67 106
206 205 326 232 89 21 219 14 280 -15z m-672 -1726 c191 -185 333 -232 480
-159 81 41 178 118 234 187 28 33 59 73 71 86 l21 26 2 -145 c0 -79 4 -178 7
-220 8 -95 -5 -139 -58 -195 -68 -72 -203 -120 -368 -131 -116 -7 -215 7 -307
45 -88 36 -128 67 -198 152 l-56 68 12 68 c7 39 9 107 6 163 -5 83 -14 128
-53 271 -5 16 17 -4 58 -55 36 -44 103 -117 149 -161z" id="node1" class="node"></path>
<path d="M1719 1910 c-26 -4 -56 -13 -67 -19 -23 -12 -65 -62 -58 -69 3 -2 34
6 70 18 69 23 173 30 239 17 43 -9 51 8 16 39 -23 21 -122 28 -200 14z" id="node2" class="node"></path>
<path d="M1099 1820 c-35 -10 -79 -50 -79 -71 0 -12 16 -23 48 -34 26 -9 57
-21 70 -26 57 -22 202 8 202 42 0 6 -20 31 -44 55 -42 43 -45 44 -107 43 -35
0 -76 -4 -90 -9z m146 -24 c16 -12 17 -16 6 -29 -7 -9 -11 -26 -9 -39 3 -22 0
-23 -52 -23 -53 0 -130 26 -130 44 0 14 37 42 66 51 45 13 98 11 119 -4z" id="node3" class="node"></path>
<path d="M1675 1820 c-17 -5 -44 -23 -60 -40 -34 -36 -29 -53 26 -85 27 -16
52 -20 116 -20 73 0 84 3 108 25 35 33 29 58 -22 93 -46 33 -115 43 -168 27z
m98 -29 c47 -11 53 -17 38 -35 -9 -11 -9 -20 -2 -34 9 -17 7 -20 -17 -25 -40
-8 -132 10 -154 30 -21 19 -14 31 37 57 34 18 46 19 98 7z" id="node4" class="node"></path>
<path d="M535 1667 c-9 -44 -2 -117 10 -120 6 -1 11 30 13 76 3 79 -12 107
-23 44z" id="node5" class="node"></path>
<path d="M1540 1532 c0 -4 25 -32 55 -61 44 -43 55 -50 55 -34 0 11 -20 39
-45 62 -42 39 -65 51 -65 33z" id="node6" class="node"></path>
<path d="M1297 1489 c-11 -6 -25 -26 -33 -45 -26 -62 15 -101 109 -102 65 -2
74 13 30 48 -34 27 -68 23 -67 -7 0 -19 -2 -20 -20 -11 -12 6 -24 16 -29 22
-12 18 3 60 31 83 29 24 13 32 -21 12z" id="node7" class="node"></path>
<path d="M1563 1393 c-7 -2 -13 -14 -13 -24 0 -31 54 -22 58 9 3 22 -14 28
-45 15z" id="node8" class="node"></path>
<path d="M1395 1310 c-12 -20 -34 -113 -29 -122 11 -17 21 3 34 62 12 58 10
84 -5 60z" id="node9" class="node"></path>
<path d="M1487 1253 c17 -60 28 -81 39 -71 10 11 -28 128 -42 128 -10 0 -9
-12 3 -57z" id="node10" class="node"></path>
<path d="M1091 1274 c-12 -15 -21 -37 -21 -51 0 -34 28 -96 40 -88 7 4 7 12 0
25 -5 10 -10 35 -10 54 0 27 6 40 25 52 30 19 32 34 6 34 -11 0 -29 -12 -40
-26z" id="node11" class="node"></path>
<path d="M1680 1286 c0 -10 14 -13 53 -12 50 1 53 -1 69 -32 9 -19 19 -37 23
-40 11 -11 -5 71 -17 86 -15 18 -128 16 -128 -2z" id="node12" class="node"></path>
<path d="M1705 1230 c-3 -5 3 -10 13 -10 34 0 45 -25 38 -85 -8 -69 9 -73 23
-5 14 67 14 76 -5 94 -17 18 -60 21 -69 6z" id="node13" class="node"></path>
<path d="M1150 1195 c-14 -17 -5 -68 16 -86 13 -10 14 -6 8 30 l-7 42 34 -20
c19 -11 63 -29 99 -41 56 -19 79 -21 165 -17 119 7 219 39 255 82 20 24 4 30
-27 9 -61 -41 -116 -56 -231 -61 -106 -5 -117 -4 -187 23 -41 16 -75 34 -75
41 0 18 -35 16 -50 -2z" id="node14" class="node"></path>
<path d="M1180 712 c0 -10 46 -54 82 -77 65 -41 247 -35 325 10 46 28 57 40
48 55 -3 6 -21 -1 -43 -15 -108 -71 -243 -73 -347 -5 -62 40 -65 42 -65 32z" id="node15" class="node"></path>
</g>
<g transform="translate(0.000000,296.000000) scale(0.100000,-0.100000)" fill="#FFFFFF" stroke="none">

<path d="M1453 2445 c-120 -27 -259 -126 -326 -232 -13 -21 -54 -73 -90 -116
-77 -90 -113 -148 -121 -197 -3 -19 -3 -29 0 -21 4 7 29 24 58 37 98 46 249
24 310 -45 26 -29 18 -33 -33 -15 -71 24 -177 29 -249 10 -94 -24 -105 -35
-118 -114 -10 -57 -30 -123 -98 -316 l-10 -29 -17 50 c-9 27 -20 69 -24 92 -6
38 -9 42 -30 37 -25 -6 -39 6 -49 44 -4 14 -17 49 -28 78 -18 45 -24 52 -48
52 -51 0 -60 -24 -60 -156 1 -179 7 -199 77 -262 64 -58 96 -71 126 -53 12 8
23 9 29 3 12 -12 35 -98 48 -180 12 -69 30 -103 126 -227 143 -186 377 -355
491 -355 68 0 195 73 287 164 142 142 227 285 267 451 11 50 24 101 28 115 4
15 16 26 31 30 14 3 31 18 38 33 12 25 36 236 27 245 -2 2 -13 -14 -24 -36
-11 -23 -25 -43 -29 -46 -5 -3 -12 68 -15 158 -4 90 -16 219 -27 287 -50 295
-122 431 -267 499 -61 29 -191 36 -280 15z m466 -549 c35 -31 27 -48 -16 -39
-66 13 -170 6 -239 -17 -36 -12 -67 -20 -70 -18 -7 7 35 57 58 69 61 33 233
35 267 5z m-623 -110 c24 -24 44 -49 44 -55 0 -34 -145 -64 -202 -42 -13 5
-44 17 -70 26 -56 19 -61 40 -21 74 34 31 64 39 142 40 62 1 65 0 107 -43z
m547 7 c51 -35 57 -60 22 -93 -24 -22 -35 -25 -108 -25 -64 0 -89 4 -116 20
-55 32 -60 49 -26 85 56 58 156 64 228 13z m-1285 -170 c-3 -83 -21 -104 -26
-31 -4 53 6 108 19 108 6 0 9 -31 7 -77z m1047 -124 c25 -23 45 -51 45 -62 0
-16 -11 -9 -55 34 -30 29 -55 57 -55 61 0 18 23 6 65 -33z m-287 -22 c-28 -23
-43 -65 -31 -83 5 -6 17 -16 29 -22 18 -9 20 -8 20 11 -1 30 33 34 67 7 44
-35 35 -50 -30 -48 -94 1 -135 40 -109 102 14 35 39 55 66 55 10 0 6 -7 -12
-22z m290 -99 c-4 -31 -58 -40 -58 -9 0 20 12 29 43 30 14 1 18 -5 15 -21z
m-208 -128 c-13 -59 -23 -79 -34 -62 -5 9 17 102 29 122 15 24 17 -2 5 -60z
m114 -1 c17 -58 15 -84 -3 -63 -4 5 -15 35 -24 67 -12 45 -13 57 -3 57 8 0 21
-27 30 -61z m-364 42 c0 -5 -11 -16 -25 -25 -19 -12 -25 -25 -25 -52 0 -19 5
-44 10 -54 7 -13 7 -21 0 -25 -12 -8 -40 54 -40 88 0 31 36 77 61 77 10 0 19
-4 19 -9z m658 -3 c12 -15 28 -97 17 -86 -4 3 -14 21 -23 40 -16 31 -19 33
-69 32 -39 -1 -53 2 -53 12 0 18 113 20 128 2z m-34 -64 c19 -18 19 -27 5 -94
-14 -68 -31 -64 -23 5 7 60 -4 85 -38 85 -10 0 -16 5 -13 10 9 15 52 12 69 -6z
m-574 -27 c0 -7 34 -25 75 -41 70 -27 81 -28 187 -23 115 5 170 20 231 61 31
21 47 15 27 -9 -36 -43 -136 -75 -255 -82 -86 -4 -109 -2 -165 17 -36 12 -80
30 -99 41 l-34 20 7 -42 c6 -36 5 -40 -8 -30 -21 18 -30 69 -16 86 15 18 50
20 50 2z m45 -517 c104 -68 239 -66 347 5 22 14 40 21 43 15 9 -15 -2 -27 -48
-55 -78 -45 -260 -51 -325 -10 -36 23 -82 67 -82 77 0 10 3 8 65 -32z" id="node17" class="node"></path>
<path d="M1126 1800 c-29 -9 -66 -37 -66 -51 0 -18 77 -44 130 -44 52 0 55 1
52 23 -2 13 2 30 9 39 29 34 -51 55 -125 33z" id="node18" class="node"></path>
<path d="M1675 1784 c-51 -26 -58 -38 -37 -57 22 -20 114 -38 154 -30 24 5 26
8 17 25 -7 14 -7 23 2 34 15 18 9 24 -38 35 -52 12 -64 11 -98 -7z" id="node19" class="node"></path>
<path d="M854 920 c39 -143 48 -188 53 -271 3 -56 1 -124 -6 -163 l-12 -68 56
-68 c70 -85 110 -116 198 -152 92 -38 191 -52 307 -45 165 11 300 59 368 131
53 56 66 100 58 195 -3 42 -7 141 -7 220 l-2 145 -21 -26 c-12 -13 -43 -53
-71 -86 -91 -112 -242 -209 -340 -219 -141 -15 -324 109 -523 352 -41 51 -63
71 -58 55z" id="node20" class="node"></path>
</g>
</svg>