<!--?xml version="1.0" standalone="no"?--><svg version="1.0" xmlns="http://www.w3.org/2000/svg" width="231.000000pt" height="300.000000pt" viewBox="0 0 231.000000 300.000000" preserveAspectRatio="xMidYMid meet">
<metadata>
  <rdf:rdf xmlns:rdf="http://www.w3.org/1999/02/22-rdf-syntax-ns#" xmlns:rdfs="http://www.w3.org/2000/01/rdf-schema#" xmlns:dc="http://purl.org/dc/elements/1.1/">
    <rdf:description dc:title="thanksgiving owl stencil" dc:publisher="Hiox" dc:date="2016-04-08" dc:format="image/svg+xml" dc:language="en">
      <dc:creator>
        <rdf:bag>
          <rdf:li>svgimages.com</rdf:li>
        </rdf:bag>
      </dc:creator>
    </rdf:description>
  </rdf:rdf>
</metadata>
<g transform="translate(0.000000,300.000000) scale(0.100000,-0.100000)" fill="#3CDC91" stroke="none">




</g>
<g transform="translate(0.000000,300.000000) scale(0.100000,-0.100000)" fill="#875079" stroke="none">

<path class="node" id="node6" d="M362 2614 c2 -98 -1 -192 -5 -209 -6 -23 -2 -20 17 15 83 155 285
254 448 222 130 -26 249 -111 304 -217 16 -30 31 -55 34 -55 3 0 13 19 23 43
40 97 150 189 271 226 85 26 146 27 227 1 121 -37 220 -121 273 -230 l31 -65
0 125 c0 69 4 165 8 215 l8 90 -33 -30 c-18 -17 -35 -33 -38 -36 -3 -4 -24
-16 -47 -28 -62 -31 -104 -27 -181 16 -66 37 -69 37 -192 41 -91 3 -150 -1
-215 -14 -112 -21 -124 -21 -260 6 -83 16 -135 20 -212 17 -93 -3 -109 -7
-165 -37 -104 -55 -170 -44 -256 41 l-42 43 2 -180z"></path>
<path class="node" id="node7" d="M690 2621 c-82 -13 -166 -59 -228 -126 -68 -73 -95 -124 -116 -226
-29 -141 13 -290 113 -396 16 -18 33 -33 37 -33 5 0 -6 15 -23 33 -126 133
-149 345 -55 509 94 162 288 243 463 192 50 -15 70 -24 145 -69 20 -12 15 -5
-16 24 -25 22 -65 48 -90 57 -25 10 -49 21 -55 25 -16 11 -126 18 -175 10z"></path>
<path class="node" id="node8" d="M1460 2621 c-45 -14 -124 -60 -160 -91 -45 -40 -34 -38 30 4 267 176
630 -32 630 -359 0 -119 -34 -205 -114 -292 -46 -51 -40 -58 8 -10 40 40 80
107 108 179 28 73 28 212 -1 286 -45 119 -112 198 -214 253 -56 29 -71 33
-162 35 -55 2 -111 0 -125 -5z"></path>
<path class="node" id="node9" d="M1479 2570 c-113 -19 -230 -108 -284 -216 -25 -49 -29 -71 -33 -163
-5 -127 2 -141 73 -141 31 0 47 -5 53 -17 11 -19 0 -64 -23 -100 -15 -23 -15
-26 2 -45 28 -32 112 -83 167 -101 91 -31 210 -17 312 36 49 26 114 99 152
172 35 67 36 74 36 175 1 98 -1 110 -31 172 -77 164 -251 258 -424 228z m125
-305 c84 -63 69 -198 -24 -226 -49 -15 -86 -5 -120 31 -74 79 -22 210 83 210
23 0 51 -7 61 -15z"></path>
<path class="node" id="node10" d="M662 2551 c-177 -66 -282 -208 -282 -381 0 -158 84 -296 224 -367 66
-34 77 -36 166 -37 86 -1 101 2 160 30 36 17 82 45 102 63 l36 32 -25 44 c-15
28 -23 56 -21 77 3 30 6 33 38 36 80 6 75 -4 75 149 l0 138 -34 53 c-93 145
-290 218 -439 163z m181 -312 c88 -69 36 -224 -75 -224 -105 0 -155 140 -78
217 24 23 37 28 78 28 35 0 57 -6 75 -21z"></path>
<path stroke-width="20" class="node" id="node11" d="M2002 2173 c-6 -209 -136 -376 -334 -429 -77 -20 -145 -17 -226 10
-78 27 -116 50 -173 103 l-35 33 -33 -40 c-17 -22 -37 -40 -43 -40 -7 0 -26
14 -44 31 l-32 31 -60 -49 c-156 -124 -344 -133 -508 -24 -102 68 -181 197
-191 311 -4 36 -10 57 -16 53 -16 -10 1 -202 29 -309 17 -66 32 -106 47 -119
108 -100 195 -335 184 -498 -10 -147 -65 -296 -145 -395 -48 -59 -47 -68 12
-120 49 -43 118 -71 201 -82 38 -6 288 -11 555 -12 522 -3 579 1 670 47 66 34
125 105 86 105 -21 0 -80 73 -120 149 -55 105 -86 226 -86 336 0 157 68 345
165 453 23 26 47 65 53 87 51 180 53 188 49 315 -1 69 -4 93 -5 53z m-292
-993 l0 -240 -560 0 -560 0 0 240 0 240 560 0 560 0 0 -240z"></path>
<path class="node" id="node12" d="M600 1180 l0 -220 550 0 550 0 0 220 0 220 -550 0 -550 0 0 -220z"></path>
<path class="node" id="node13" d="M1063 2032 c-34 -5 -29 -46 11 -102 48 -67 69 -90 81 -90 17 0 115
140 115 165 0 21 -5 23 -77 29 -77 5 -86 5 -130 -2z"></path>
<path class="node" id="node14" d="M511 1827 c2 -1 13 -9 24 -17 19 -14 19 -14 6 3 -7 9 -18 17 -24 17
-6 0 -8 -1 -6 -3z"></path>
<path class="node" id="node15" d="M307 1678 c-53 -66 -93 -145 -122 -241 -25 -80 -27 -98 -22 -200 3
-84 11 -129 30 -182 40 -113 106 -223 148 -245 53 -29 177 205 199 376 11 89
-2 215 -30 290 -48 129 -122 244 -156 244 -7 0 -28 -19 -47 -42z"></path>
<path class="node" id="node16" d="M1899 1678 c-132 -182 -170 -407 -104 -615 36 -115 127 -263 161
-263 12 0 76 80 111 141 11 19 33 73 49 120 24 73 28 100 28 199 1 101 -3 125
-28 199 -32 93 -51 129 -108 209 -48 64 -68 66 -109 10z"></path>
<path class="node" id="node17" d="M733 571 c-20 -48 -11 -65 32 -57 28 6 41 2 62 -13 35 -28 90 -27
120 1 21 19 27 20 44 10 27 -17 49 0 49 37 0 47 -7 49 -154 53 l-139 3 -14
-34z"></path>
<path class="node" id="node18" d="M1240 551 c0 -54 16 -70 50 -49 16 10 23 9 43 -10 32 -30 87 -29 125
3 21 17 32 21 40 13 12 -12 62 -3 62 13 0 5 -7 25 -14 44 l-15 35 -145 0 -146
0 0 -49z"></path>
</g>
</svg>